<svg width="973" height="734" viewBox="0 0 973 734" fill="none" xmlns="http://www.w3.org/2000/svg">
<circle cx="672" cy="433" r="301" fill="#F6F5FF"/>
<g filter="url(#filter0_d)">
<circle cx="459.971" cy="361.5" r="291.5" fill="#EE21E6"/>
</g>
<g opacity="0.1" filter="url(#filter1_f)">
<path fill-rule="evenodd" clip-rule="evenodd" d="M192.917 350.918C160.831 330.614 124.306 302.159 105.097 279.224C90.8568 262.222 88.515 248.302 92.0439 242.726C100.333 229.627 169.279 259.045 225.149 294.401C281.019 329.756 319.591 369.037 311.302 382.136C303.013 395.235 248.787 386.274 192.917 350.918Z" fill="#101239"/>
</g>
<mask id="mask0" mask-type="alpha" maskUnits="userSpaceOnUse" x="87" y="158" width="410" height="190">
<path d="M119.301 332.098C101.836 332.098 87.6782 295.22 87.6782 249.727C87.6782 204.235 101.836 167.356 119.301 167.356C136.766 167.356 492.917 119.743 496.179 249.727C485.743 400.642 136.766 332.098 119.301 332.098Z" fill="#13163D"/>
</mask>
<g mask="url(#mask0)">
<ellipse cx="119.017" cy="249.668" rx="82.3709" ry="31.6232" transform="rotate(90 119.017 249.668)" fill="#13163D"/>
<path fill-rule="evenodd" clip-rule="evenodd" d="M393.297 230.663C392.954 230.632 392.614 230.589 392.279 230.535L392.026 231.3L360.174 227.215C359.916 270.09 358.42 313.796 358.42 313.796L316.285 306.881C316.285 306.881 305.894 305.013 293.998 302.939C288.134 301.917 283.99 300.621 280.627 299.57C277.168 298.488 274.536 297.666 271.711 297.666L264.483 297.666L74.9999 297.471L74.9999 195.072L296.586 195.072L324.739 185.597C328.04 183.9 331.847 183.088 335.821 183.446C337.533 183.601 339.176 183.963 340.727 184.507L340.731 184.494L393.593 202.154C394.338 202.105 395.096 202.112 395.863 202.181C403.757 202.893 409.581 209.845 408.873 217.71C408.164 225.575 401.19 231.374 393.297 230.663Z" fill="url(#paint0_linear)"/>
<path fill-rule="evenodd" clip-rule="evenodd" d="M400.885 203.823L393.249 228.906L360.632 226.343C360.394 269.576 358.871 314.053 358.871 314.053L316.737 307.137C316.737 307.137 306.346 305.269 294.45 303.196C288.586 302.174 284.441 300.878 281.079 299.826C277.62 298.745 274.988 297.922 272.163 297.922L264.935 297.922L75.4516 297.727L75.4516 195.328L297.038 195.328L328.216 184.256L328.55 184.577C330.521 184.036 332.609 183.785 334.761 183.873C336.467 183.942 338.115 184.22 339.681 184.681L339.791 184.256L400.885 203.823Z" fill="url(#paint1_linear)"/>
<g opacity="0.7" filter="url(#filter2_f)">
<ellipse cx="371.901" cy="235.868" rx="16.7219" ry="29.7277" transform="rotate(100.459 371.901 235.868)" fill="#ABADD7"/>
</g>
<g opacity="0.3" filter="url(#filter3_f)">
<ellipse cx="330.007" cy="292.725" rx="16.7409" ry="16.3061" transform="rotate(90 330.007 292.725)" fill="#ADAFD7"/>
</g>
<g opacity="0.4" filter="url(#filter4_f)">
<ellipse cx="338.704" cy="276.2" rx="17.6106" ry="17.1757" transform="rotate(90 338.704 276.2)" fill="#ADAFD7"/>
</g>
<g opacity="0.6" filter="url(#filter5_f)">
<ellipse cx="346.096" cy="257.503" rx="16.7409" ry="16.3061" transform="rotate(90 346.096 257.503)" fill="#ADAFD7"/>
</g>
<g opacity="0.5" filter="url(#filter6_f)">
<path d="M335.512 220.43C335.512 211.557 328.196 204.429 319.326 204.661L93.2122 210.569C87.2661 210.725 82.5266 215.59 82.5266 221.538C82.5266 227.528 87.3305 232.411 93.3196 232.509L319.481 236.202C328.292 236.346 335.512 229.243 335.512 220.43Z" fill="white"/>
</g>
<path fill-rule="evenodd" clip-rule="evenodd" d="M338.809 290.6C333.172 291.48 328.995 296.492 329.284 302.316C329.545 307.555 333.335 311.782 338.239 312.81L350.651 317.911C352.567 318.874 354.749 319.369 357.043 319.255C364.126 318.903 369.583 312.876 369.231 305.793C368.932 299.766 364.523 294.916 358.852 293.821L358.854 293.813L338.921 289.896L338.809 290.6Z" fill="url(#paint2_linear)"/>
<g opacity="0.7" filter="url(#filter7_f)">
<ellipse cx="349.301" cy="294.673" rx="7.46899" ry="21.9422" transform="rotate(104.137 349.301 294.673)" fill="#989ACB"/>
</g>
<path fill-rule="evenodd" clip-rule="evenodd" d="M369.053 300.393C370.716 301.029 372.535 301.337 374.427 301.243C381.721 300.881 387.341 294.674 386.978 287.38C386.651 280.788 381.55 275.564 375.188 274.886L347.944 269.381C346.572 268.904 345.088 268.678 343.549 268.754C337.134 269.073 332.192 274.531 332.511 280.945C332.772 286.197 336.478 290.462 341.333 291.66L369.044 300.422L369.053 300.393Z" fill="url(#paint3_linear)"/>
<g opacity="0.7" filter="url(#filter8_f)">
<ellipse cx="361.934" cy="273.923" rx="4.22288" ry="28.5465" transform="rotate(107.469 361.934 273.923)" fill="#989ACB"/>
</g>
<path fill-rule="evenodd" clip-rule="evenodd" d="M384.598 280.933C386.373 281.728 388.349 282.151 390.424 282.105C397.889 281.936 403.805 275.748 403.636 268.282C403.482 261.454 398.293 255.923 391.696 255.156L352.514 246.024C351.024 245.401 349.381 245.072 347.662 245.111C341.097 245.259 335.895 250.701 336.043 257.266C336.174 263.09 340.471 267.84 346.022 268.736L384.598 280.933Z" fill="url(#paint4_linear)"/>
<g opacity="0.7" filter="url(#filter9_f)">
<ellipse cx="371.141" cy="253.258" rx="4.97863" ry="33.3448" transform="rotate(109.02 371.141 253.258)" fill="#989ACB"/>
</g>
<path fill-rule="evenodd" clip-rule="evenodd" d="M398.499 261.004C400.521 261.921 402.785 262.382 405.155 262.265C413.104 261.87 419.227 255.106 418.833 247.157C418.474 239.931 412.852 234.213 405.861 233.529L369.244 224.66C367.784 224.168 366.208 223.937 364.576 224.018C357.586 224.365 352.201 230.313 352.548 237.303C352.853 243.434 357.465 248.33 363.31 249.207L398.499 261.004Z" fill="url(#paint5_linear)"/>
<g opacity="0.4" filter="url(#filter10_f)">
<ellipse cx="377.083" cy="289.973" rx="8.22618" ry="8.41297" transform="rotate(106.185 377.083 289.973)" fill="white"/>
</g>
<g opacity="0.4" filter="url(#filter11_f)">
<ellipse cx="392.758" cy="270.709" rx="8.88274" ry="9.08443" transform="rotate(107.736 392.758 270.709)" fill="white"/>
</g>
<g opacity="0.4" filter="url(#filter12_f)">
<ellipse cx="407.373" cy="249.124" rx="9.85502" ry="10.0788" transform="rotate(106.185 407.373 249.124)" fill="white"/>
</g>
<g opacity="0.3" filter="url(#filter13_f)">
<ellipse cx="359.44" cy="308.851" rx="6.14222" ry="6.28169" transform="rotate(106.185 359.44 308.851)" fill="white"/>
</g>
<g opacity="0.6" filter="url(#filter14_f)">
<rect width="52.8496" height="12.1538" rx="6.07688" transform="matrix(-0.968923 -0.247363 -0.247363 0.968923 411.973 242.121)" fill="url(#paint6_linear)"/>
</g>
<g opacity="0.6" filter="url(#filter15_f)">
<rect width="47.4189" height="13.7015" rx="6.85075" transform="matrix(-0.949117 -0.314923 -0.314923 0.949117 394.108 265.148)" fill="url(#paint7_linear)"/>
</g>
<g opacity="0.5" filter="url(#filter16_f)">
<rect width="43.6925" height="12.1538" rx="6.07688" transform="matrix(-0.95473 -0.297474 -0.297474 0.95473 383.274 285.066)" fill="url(#paint8_linear)"/>
</g>
<g opacity="0.7" filter="url(#filter17_f)">
<rect width="32.1319" height="17.3353" rx="8.66763" transform="matrix(-0.951884 -0.306458 -0.306458 0.951884 361.71 299.746)" fill="url(#paint9_linear)"/>
</g>
<g opacity="0.7" filter="url(#filter18_f)">
<rect width="43.6364" height="21.1666" rx="10.5833" transform="matrix(-0.951884 -0.306458 -0.306458 0.951884 379.816 279.789)" fill="url(#paint10_linear)"/>
</g>
<path fill-rule="evenodd" clip-rule="evenodd" d="M348.76 264.524C348.832 264.554 348.905 264.583 348.98 264.611C352.305 265.854 356.135 263.829 357.533 260.089C358.931 256.349 357.368 252.309 354.042 251.066C353.966 251.037 353.89 251.01 353.813 250.985C353.759 250.962 353.703 250.939 353.647 250.918L347.774 248.723C345.605 247.913 343.277 249.524 342.909 251.81C342.747 252.817 342.517 253.826 342.19 254.657C341.928 255.324 341.54 256.04 341.108 256.735C339.88 258.71 340.567 261.467 342.745 262.281L348.584 264.463C348.643 264.485 348.701 264.505 348.76 264.524Z" fill="white"/>
<path fill-rule="evenodd" clip-rule="evenodd" d="M365.442 244.767C365.511 244.791 365.581 244.815 365.651 244.837C369.225 245.963 373.158 243.585 374.436 239.527C375.714 235.469 373.853 231.267 370.28 230.141C370.251 230.132 370.223 230.124 370.194 230.115C370.14 230.095 370.086 230.076 370.031 230.059L363.278 227.932C361.074 227.238 358.832 228.96 358.609 231.26C358.495 232.445 358.298 233.659 357.967 234.653C357.695 235.468 357.258 236.358 356.775 237.212C355.63 239.231 356.47 241.942 358.684 242.639L365.402 244.755C365.415 244.759 365.429 244.763 365.442 244.767Z" fill="white"/>
<path fill-rule="evenodd" clip-rule="evenodd" d="M343.663 287.062C343.751 287.102 343.84 287.14 343.93 287.176C347.157 288.47 350.875 286.768 352.235 283.375C353.595 279.982 352.082 276.183 348.855 274.89C348.774 274.857 348.692 274.826 348.609 274.797C348.544 274.766 348.477 274.736 348.408 274.709L342.976 272.531C340.798 271.658 338.419 273.275 337.96 275.577C337.81 276.332 337.612 277.066 337.35 277.686C337.152 278.155 336.881 278.648 336.573 279.136C335.315 281.131 335.899 283.955 338.088 284.832L343.483 286.995C343.543 287.019 343.603 287.041 343.663 287.062Z" fill="white"/>
<path fill-rule="evenodd" clip-rule="evenodd" d="M339.921 308.049C339.947 308.06 339.973 308.071 340 308.081C342.715 309.17 345.91 307.572 347.136 304.513C348.363 301.453 347.156 298.091 344.441 297.003C344.43 296.998 344.419 296.994 344.408 296.99C344.388 296.981 344.368 296.973 344.348 296.964L338.994 294.818C337.383 294.172 335.605 295.336 335.319 297.047C335.161 297.991 334.933 298.963 334.606 299.741C334.336 300.385 333.919 301.082 333.469 301.74C332.487 303.179 332.96 305.259 334.578 305.907L339.906 308.043C339.911 308.045 339.916 308.047 339.921 308.049Z" fill="white"/>
<g opacity="0.7" filter="url(#filter19_f)">
<ellipse cx="359.992" cy="226.864" rx="4.97863" ry="18.3309" transform="rotate(79.4233 359.992 226.864)" fill="#989ACB"/>
</g>
<g opacity="0.7" filter="url(#filter20_f)">
<ellipse cx="398.801" cy="234.534" rx="4.97863" ry="17.9493" transform="rotate(114.665 398.801 234.534)" fill="#989ACB"/>
</g>
<path d="M422.366 236.734C406.043 234.93 392.964 232.065 393.152 230.335C393.341 228.605 406.725 228.666 423.048 230.471C439.37 232.275 452.449 235.14 452.261 236.87C452.072 238.6 438.688 238.539 422.366 236.734Z" fill="#FDC849"/>
<path d="M393.112 230.368L391.92 240.672C391.762 241.952 400.061 244.082 412.995 245.867C428.604 248.018 445.108 248.848 449.852 247.749C450.655 247.552 451.086 247.303 451.144 247.001L452.262 236.7C452.203 237.003 451.846 237.248 450.97 237.448C446.299 238.543 429.795 237.714 414.112 235.566C401.252 233.777 392.957 231.721 393.112 230.368Z" fill="url(#paint11_linear)"/>
<path d="M393.11 230.222L391.946 240.596C391.791 241.884 400.09 244.053 413.018 245.888C428.622 248.1 445.116 248.983 449.854 247.89C450.656 247.694 451.086 247.445 451.144 247.14L452.234 236.77C452.176 237.075 451.82 237.32 450.945 237.52C446.28 238.609 429.786 237.726 414.109 235.518C401.254 233.679 392.959 231.585 393.11 230.222Z" fill="url(#paint12_linear)"/>
<g filter="url(#filter21_i)">
<ellipse rx="22.313" ry="1.34708" transform="matrix(-0.994266 -0.106931 -0.106931 0.994266 423.33 233.723)" fill="#FFCA39"/>
</g>
<g opacity="0.5" filter="url(#filter22_f)">
<ellipse cx="399.774" cy="228.14" rx="12.8076" ry="4.72171" transform="rotate(10.709 399.774 228.14)" fill="#BB8B08"/>
</g>
<path d="M384.291 201.128C386.568 201.968 397.487 205.27 397.487 205.27C397.487 205.27 404.69 207.369 405.73 204.332L380.013 197.351C379.885 199.734 382.015 200.287 384.291 201.128Z" fill="white"/>
<g opacity="0.6" filter="url(#filter23_f)">
<path d="M339.742 189.493C339.746 189.495 339.745 189.494 339.749 189.496L396.151 211.371C399.52 212.677 401.192 216.468 399.886 219.837C398.716 222.852 395.52 224.561 392.364 223.858L333.188 210.684C332.188 210.461 331.224 210.089 330.434 209.437C328.12 207.525 323.684 202.682 327.089 195.617C331.529 186.404 339.619 189.446 339.742 189.493Z" fill="white"/>
</g>
<path fill-rule="evenodd" clip-rule="evenodd" d="M392.126 230.553C392.46 230.607 392.8 230.649 393.143 230.68C401.037 231.392 408.01 225.592 408.719 217.728C409.427 209.863 403.603 202.91 395.709 202.199C394.942 202.13 394.184 202.122 393.44 202.172L340.577 184.511L340.573 184.525C339.022 183.981 337.379 183.619 335.667 183.465C324.532 182.461 314.696 190.646 313.695 201.745C312.805 211.628 319.221 220.49 328.498 223.022L328.448 223.183L330.191 223.407C330.799 223.518 331.418 223.602 332.045 223.659C332.151 223.668 332.256 223.677 332.361 223.685L392.126 230.553Z" fill="url(#paint13_linear)"/>
<path d="M384.291 201.128C386.568 201.968 397.487 205.27 397.487 205.27C397.487 205.27 404.69 207.369 405.73 204.332L380.013 197.351C379.885 199.734 382.015 200.287 384.291 201.128Z" fill="white"/>
<g opacity="0.6" filter="url(#filter24_f)">
<path d="M339.742 189.493C339.746 189.495 339.745 189.494 339.749 189.496L396.151 211.371C399.52 212.677 401.192 216.468 399.886 219.837C398.716 222.852 395.52 224.561 392.364 223.858L333.188 210.684C332.188 210.461 331.224 210.089 330.434 209.437C328.12 207.525 323.684 202.682 327.089 195.617C331.529 186.404 339.619 189.446 339.742 189.493Z" fill="white"/>
</g>
<g filter="url(#filter25_f)">
<ellipse rx="15.6538" ry="10.2185" transform="matrix(-1 0 0 1 348.052 214.476)" fill="#FAFAFC"/>
</g>
</g>
<g opacity="0.13" filter="url(#filter26_f)">
<circle cx="460.467" cy="428.424" r="170.042" fill="#101239"/>
</g>
<g opacity="0.8">
<g opacity="0.5" filter="url(#filter27_f)">
<path d="M670.755 422.378C678.422 441.386 594.669 468.649 494.146 509.196C393.622 549.744 315.072 589.904 306.726 569.214C297.228 545.664 379.973 514.057 480.496 473.51C581.02 432.962 658.294 391.488 670.755 422.378Z" fill="black"/>
</g>
</g>
<g opacity="0.14" filter="url(#filter28_f)">
<path d="M445.099 541.951L357.847 514.002L516.856 460.648L585.789 503.355L445.099 541.951Z" fill="black"/>
</g>
<path d="M509.97 395.652L569.261 522.155L452.246 554.283L509.97 395.652Z" fill="url(#paint14_linear)"/>
<path d="M452.246 554.283L376.745 533.236L434.469 374.605L509.97 395.652L452.246 554.283Z" fill="url(#paint15_linear)"/>
<path d="M696.939 299.484L698.481 317.697L294.581 486.356L293.214 467.338L696.939 299.484Z" fill="url(#paint16_linear)"/>
<path d="M294.662 486.267L222.335 470.752L221.02 452.77L293.296 467.249L294.662 486.267Z" fill="#DCDCEE"/>
<path d="M293.347 468.181L221.02 452.769L624.823 284.008L696.939 299.485L293.347 468.181Z" fill="#F1F1F7"/>
<g filter="url(#filter29_f)">
<ellipse cx="300.62" cy="431.63" rx="33.3205" ry="7.87994" fill="#96A0D3"/>
</g>
<path d="M293.689 443.067C309.71 442.939 322.662 438.212 322.619 432.509C322.576 426.805 309.553 422.285 293.531 422.413C277.51 422.541 264.558 427.268 264.601 432.971C264.644 438.675 277.667 443.195 293.689 443.067Z" fill="url(#paint17_radial)"/>
<path d="M322.616 432.254L322.699 442.198C322.699 444.536 320.503 446.915 315.986 448.87C305.75 453.333 287.433 454.055 275.125 450.485C268.245 448.53 264.681 445.598 264.681 442.666L264.598 432.721C264.64 435.696 268.162 438.586 275.042 440.583C287.35 444.153 305.667 443.431 315.903 438.968C320.42 436.971 322.616 434.591 322.616 432.254Z" fill="url(#paint18_linear)"/>
<g filter="url(#filter30_i)">
<path d="M293.648 438.287C306.048 438.188 316.079 435.356 316.054 431.962C316.028 428.568 305.955 425.897 293.554 425.996C281.154 426.095 271.123 428.927 271.148 432.321C271.174 435.715 281.248 438.386 293.648 438.287Z" fill="#FFCA39"/>
</g>
<g filter="url(#filter31_d)">
<g clip-path="url(#clip0)">
<path d="M283.992 417.405L283.908 418.978L281.219 418.356L281.177 416.781L283.992 417.405Z" fill="url(#paint19_linear)"/>
<path d="M287.474 419.632L287.433 418.057C287.433 417.85 287.681 417.601 288.343 417.311C289.874 416.607 291.529 416.317 292.398 416.109L292.439 417.684C291.57 417.891 289.957 418.181 288.426 418.886C287.723 419.176 287.474 419.466 287.474 419.632Z" fill="url(#paint20_linear)"/>
<path d="M304.554 419.043V420.626C304.554 421.04 304.264 421.496 303.561 421.952L303.519 420.377C304.223 419.88 304.554 419.416 304.554 419.043Z" fill="url(#paint21_linear)"/>
<path d="M299.953 419.548L299.994 421.123C299.994 420.916 299.746 420.75 299.249 420.626C298.174 420.377 296.808 420.543 294.533 421.123C291.264 421.952 288.285 422.366 285.513 421.745C283.941 421.413 283.114 420.874 283.072 420.211L283.031 418.637C283.031 419.258 283.9 419.797 285.472 420.17C288.244 420.792 291.223 420.377 294.491 419.548C296.767 418.968 298.132 418.802 299.208 419.051C299.705 419.175 299.953 419.341 299.953 419.548Z" fill="url(#paint22_linear)"/>
<path d="M304.383 421.947L304.406 423.515L301.695 422.957L301.66 421.355L304.383 421.947Z" fill="url(#paint23_linear)"/>
<path d="M306.445 420.996L306.456 422.577L304.404 423.514L304.346 421.955L306.445 420.996Z" fill="url(#paint24_linear)"/>
<path d="M296.858 422.784L296.899 424.359L294.21 423.323L294.21 421.75L296.858 422.784Z" fill="url(#paint25_linear)"/>
<path d="M301.657 421.375L301.698 422.95C300.209 423.571 298.306 424.11 296.899 424.359L296.858 422.784C297.706 422.634 298.719 422.376 299.725 422.063C300.389 421.857 301.046 421.622 301.657 421.375Z" fill="url(#paint26_linear)"/>
<path d="M283.246 415.823L285.769 416.362C287.259 415.74 288.624 415.367 289.783 415.16L292.389 416.155C291.52 416.362 289.907 416.652 288.376 417.356C287.011 417.978 287.342 418.392 288.169 418.558C289.121 418.765 290.445 418.558 293.175 417.937C296.899 417.025 299.464 416.901 302.029 417.481C304.553 418.061 305.422 419.138 303.56 420.382L306.456 421.003L304.388 421.956L301.657 421.376C300.167 421.998 298.264 422.536 296.858 422.785L294.168 421.749C295.699 421.459 297.561 421.045 298.926 420.382C300.126 419.801 300.333 419.304 299.175 419.056C298.099 418.807 296.733 418.973 294.458 419.553C291.189 420.382 288.211 420.796 285.438 420.174C282.915 419.636 282.253 418.558 283.949 417.398L281.177 416.776L283.246 415.823Z" fill="white"/>
</g>
</g>
<path d="M295.879 430.614C311.9 430.486 324.852 425.759 324.809 420.056C324.766 414.352 311.743 409.832 295.721 409.96C279.7 410.088 266.748 414.815 266.791 420.518C266.834 426.222 279.857 430.741 295.879 430.614Z" fill="#FFCA39"/>
<path d="M324.806 419.801L324.889 429.745C324.889 432.082 322.692 434.462 318.175 436.417C307.939 440.879 289.622 441.602 277.314 438.032C270.435 436.077 266.871 433.145 266.871 430.213L266.788 420.268C266.829 423.243 270.352 426.133 277.231 428.13C289.539 431.7 307.856 430.978 318.092 426.515C322.609 424.518 324.806 422.138 324.806 419.801Z" fill="url(#paint27_linear)"/>
<g filter="url(#filter32_i)">
<path d="M295.838 425.838C308.238 425.739 318.269 422.907 318.244 419.513C318.218 416.119 308.145 413.448 295.744 413.547C283.344 413.646 273.313 416.478 273.338 419.872C273.364 423.266 283.437 425.937 295.838 425.838Z" fill="#FFCA39"/>
</g>
<g filter="url(#filter33_d)">
<g clip-path="url(#clip1)">
<path d="M286.181 417.244L286.097 418.817L283.408 418.196L283.366 416.621L286.181 417.244Z" fill="url(#paint28_linear)"/>
<path d="M289.664 419.472L289.623 417.897C289.623 417.69 289.871 417.441 290.533 417.151C292.064 416.446 293.719 416.156 294.588 415.949L294.629 417.524C293.76 417.731 292.146 418.021 290.616 418.726C289.912 419.016 289.664 419.306 289.664 419.472Z" fill="url(#paint29_linear)"/>
<path d="M306.743 418.887V420.469C306.743 420.884 306.453 421.34 305.75 421.796L305.709 420.221C306.412 419.724 306.743 419.26 306.743 418.887Z" fill="url(#paint30_linear)"/>
<path d="M302.142 419.392L302.183 420.967C302.183 420.76 301.935 420.594 301.438 420.47C300.363 420.221 298.997 420.387 296.722 420.967C293.453 421.796 290.474 422.21 287.702 421.588C286.13 421.257 285.303 420.718 285.261 420.055L285.22 418.48C285.22 419.102 286.089 419.641 287.661 420.014C290.433 420.635 293.412 420.221 296.68 419.392C298.956 418.812 300.321 418.646 301.397 418.895C301.894 419.019 302.142 419.185 302.142 419.392Z" fill="url(#paint31_linear)"/>
<path d="M306.572 421.787L306.596 423.355L303.885 422.797L303.85 421.195L306.572 421.787Z" fill="url(#paint32_linear)"/>
<path d="M308.634 420.836L308.645 422.417L306.593 423.354L306.535 421.795L308.634 420.836Z" fill="url(#paint33_linear)"/>
<path d="M299.047 422.624L299.088 424.198L296.399 423.162L296.399 421.59L299.047 422.624Z" fill="url(#paint34_linear)"/>
<path d="M303.846 421.215L303.888 422.79C302.398 423.411 300.495 423.95 299.088 424.199L299.047 422.624C299.895 422.474 300.908 422.216 301.915 421.903C302.578 421.697 303.235 421.462 303.846 421.215Z" fill="url(#paint35_linear)"/>
<path d="M285.435 415.663L287.959 416.202C289.449 415.58 290.814 415.207 291.972 415L294.579 415.995C293.71 416.202 292.097 416.492 290.566 417.196C289.2 417.818 289.531 418.232 290.359 418.398C291.31 418.605 292.634 418.398 295.365 417.776C299.089 416.865 301.654 416.74 304.219 417.321C306.743 417.901 307.612 418.978 305.75 420.221L308.646 420.843L306.577 421.796L303.847 421.216C302.357 421.838 300.454 422.376 299.047 422.625L296.358 421.589C297.889 421.299 299.751 420.884 301.116 420.221C302.316 419.641 302.523 419.144 301.364 418.895C300.288 418.647 298.923 418.812 296.648 419.393C293.379 420.221 290.4 420.636 287.628 420.014C285.104 419.476 284.442 418.398 286.139 417.238L283.367 416.616L285.435 415.663Z" fill="white"/>
</g>
</g>
<g filter="url(#filter34_f)">
<ellipse cx="632.899" cy="298.134" rx="33.3205" ry="7.87994" fill="#96A0D3"/>
</g>
<path d="M633.577 302.612C649.229 302.487 661.883 297.869 661.841 292.297C661.799 286.725 649.076 282.309 633.423 282.434C617.771 282.559 605.117 287.177 605.159 292.749C605.201 298.321 617.924 302.737 633.577 302.612Z" fill="url(#paint36_linear)"/>
<path d="M661.838 292.047L661.919 301.762C661.919 304.046 659.773 306.371 655.36 308.281C645.36 312.64 627.465 313.346 615.44 309.858C608.719 307.948 605.237 305.084 605.237 302.219L605.156 292.504C605.197 295.41 608.638 298.233 615.359 300.185C627.384 303.672 645.279 302.966 655.279 298.607C659.692 296.655 661.838 294.33 661.838 292.047Z" fill="url(#paint37_linear)"/>
<g filter="url(#filter35_i)">
<path d="M633.536 297.946C645.651 297.849 655.451 295.082 655.426 291.767C655.401 288.451 645.559 285.841 633.445 285.938C621.33 286.035 611.53 288.801 611.555 292.117C611.58 295.433 621.421 298.042 633.536 297.946Z" fill="#FFCA39"/>
</g>
<g filter="url(#filter36_d)">
<path d="M625.944 289.169L625.984 290.663L622.716 289.936L622.676 288.402L625.944 289.169Z" fill="url(#paint38_linear)"/>
<path d="M636.89 288.602L636.929 290.135C636.929 290.216 636.89 290.337 636.851 290.418L636.811 288.884C636.851 288.763 636.89 288.682 636.89 288.602Z" fill="url(#paint39_linear)"/>
<path d="M633.734 289.553L633.661 291.106C633.661 290.904 633.425 290.702 632.795 290.581C630.944 290.178 629.173 290.864 628.031 291.389C627.677 291.55 627.401 291.712 627.204 291.793L627.165 290.258C627.362 290.178 627.677 289.966 628.031 289.805C629.133 289.28 630.944 288.553 632.795 288.997C633.425 289.118 633.734 289.351 633.734 289.553Z" fill="url(#paint40_linear)"/>
<path d="M623.306 290.457L623.345 291.991L619.999 291.224L619.959 289.73L623.306 290.457Z" fill="url(#paint41_linear)"/>
<path d="M640.709 290.704L640.748 292.239C640.748 291.996 640.473 291.795 639.843 291.673C637.795 291.229 635.669 292.077 634.331 292.723C633.937 292.925 633.582 293.087 633.346 293.208L633.307 291.673C633.543 291.552 633.858 291.391 634.291 291.189C635.63 290.543 637.756 289.695 639.803 290.139C640.473 290.26 640.709 290.462 640.709 290.704Z" fill="url(#paint42_linear)"/>
<path d="M622.44 292.435L622.48 293.928L620.314 293.444L620.275 291.91L622.44 292.435Z" fill="url(#paint43_linear)"/>
<path d="M645.078 290.016L645.117 291.55C645.117 292.115 644.245 292.757 642.946 293.444L642.906 291.91C644.206 291.223 645.078 290.581 645.078 290.016Z" fill="url(#paint44_linear)"/>
<path d="M641.499 292.645L641.535 294.211C641.142 294.413 640.748 294.575 640.315 294.776L640.216 293.237C640.61 293.035 641.105 292.806 641.499 292.645Z" fill="url(#paint45_linear)"/>
<path d="M644.804 293.406L644.843 294.94L641.536 294.173L641.496 292.68L644.804 293.406Z" fill="url(#paint46_linear)"/>
<path d="M646.27 292.719L646.31 294.252L644.828 294.934L644.789 293.4L646.27 292.719Z" fill="url(#paint47_linear)"/>
<path fill-rule="evenodd" clip-rule="evenodd" d="M625.354 293.203L625.354 293.203C624.881 293.123 624.212 293.123 623.582 293.405L623.582 293.405L622.48 293.93L622.44 292.436L623.543 291.911L623.581 293.363L623.543 291.871C624.173 291.588 624.842 291.629 625.314 291.669L625.314 291.669L629.134 292.557L629.158 294.054L625.354 293.203ZM634.488 293.769L629.134 292.557L629.158 294.054L634.506 295.258L634.507 295.295C634.662 295.335 634.878 295.422 634.882 295.503L634.843 293.971C634.803 293.89 634.646 293.809 634.488 293.769Z" fill="url(#paint48_linear)"/>
<path d="M642.103 294.711L642.132 296.223L638.735 295.463L638.699 293.926L642.103 294.711Z" fill="url(#paint49_linear)"/>
<path d="M643.623 294.012L643.662 295.505L642.126 296.232L642.087 294.698L643.623 294.012Z" fill="url(#paint50_linear)"/>
<path d="M636.811 288.884C638.741 288.278 640.788 288.117 643.19 288.803C646.182 289.651 645.277 290.701 642.914 291.953L646.3 292.72L644.804 293.447L641.457 292.679C641.064 292.881 640.67 293.043 640.237 293.245L643.584 294.012L642.087 294.739L638.699 293.925C638.345 294.086 637.993 294.294 637.599 294.496L635.63 295.425L633.504 294.739L634.606 294.214C635.04 294.012 634.725 293.85 634.488 293.77L629.134 292.558C629.134 292.558 629.173 292.558 629.173 292.518C629.212 292.518 629.252 292.478 629.291 292.478C629.212 292.518 629.173 292.518 629.134 292.558L625.314 291.71C624.842 291.63 624.173 291.63 623.543 291.912L622.44 292.437L620.275 291.953L622.361 290.943C622.676 290.782 622.991 290.661 623.306 290.499L619.96 289.732L621.456 289.005L624.763 289.732C625.157 289.53 625.551 289.328 625.944 289.167L622.676 288.4L624.173 287.673L627.519 288.44C629.685 287.552 632.047 286.986 634.646 287.471C636.575 287.834 637.087 288.319 636.811 288.884ZM638.583 292.316C639.922 291.67 641.851 290.62 639.804 290.136C637.756 289.692 635.63 290.539 634.292 291.185C633.898 291.387 633.543 291.549 633.307 291.67L637.796 292.679C637.993 292.558 638.268 292.437 638.583 292.316ZM627.204 290.257L631.299 291.185C631.457 291.105 631.693 290.984 631.969 290.862C633.071 290.338 634.685 289.449 632.795 289.005C630.945 288.601 629.173 289.288 628.031 289.813C627.677 290.015 627.401 290.176 627.204 290.257Z" fill="white"/>
<path d="M635.669 295.385V296.919L633.543 296.233L633.503 294.699L635.669 295.385Z" fill="url(#paint51_linear)"/>
<path fill-rule="evenodd" clip-rule="evenodd" d="M638.74 295.468L638.7 293.934C638.346 294.135 637.993 294.298 637.599 294.49L635.669 295.387V296.921L637.637 295.993C638.031 295.791 638.386 295.629 638.74 295.468Z" fill="url(#paint52_linear)"/>
</g>
<path d="M629.925 290.753C645.577 290.628 658.231 286.01 658.189 280.438C658.147 274.866 645.423 270.45 629.771 270.575C614.119 270.7 601.465 275.318 601.507 280.89C601.549 286.462 614.272 290.878 629.925 290.753Z" fill="url(#paint53_radial)"/>
<path d="M658.186 280.188L658.267 289.903C658.267 292.186 656.121 294.511 651.708 296.421C641.708 300.781 623.813 301.487 611.788 297.999C605.067 296.089 601.585 293.224 601.585 290.36L601.504 280.644C601.545 283.551 604.986 286.374 611.707 288.325C623.732 291.813 641.627 291.107 651.627 286.747C656.04 284.796 658.186 282.471 658.186 280.188Z" fill="url(#paint54_linear)"/>
<g filter="url(#filter37_i)">
<path d="M629.884 286.082C641.998 285.986 651.799 283.219 651.774 279.903C651.748 276.588 641.907 273.978 629.792 274.075C617.678 274.172 607.877 276.938 607.903 280.254C607.928 283.57 617.769 286.179 629.884 286.082Z" fill="#FFCA39"/>
</g>
<g filter="url(#filter38_d)">
<path d="M622.291 277.31L622.331 278.803L619.063 278.077L619.023 276.543L622.291 277.31Z" fill="url(#paint55_linear)"/>
<path d="M633.238 276.742L633.277 278.276C633.277 278.357 633.238 278.478 633.198 278.558L633.159 277.025C633.198 276.904 633.238 276.823 633.238 276.742Z" fill="url(#paint56_linear)"/>
<path d="M630.081 277.694L630.009 279.247C630.009 279.045 629.772 278.843 629.142 278.722C627.292 278.318 625.52 279.005 624.378 279.529C624.024 279.691 623.748 279.852 623.551 279.933L623.512 278.399C623.709 278.318 624.024 278.107 624.378 277.945C625.481 277.42 627.292 276.694 629.142 277.138C629.772 277.259 630.081 277.492 630.081 277.694Z" fill="url(#paint57_linear)"/>
<path d="M619.653 278.598L619.693 280.131L616.346 279.364L616.307 277.871L619.653 278.598Z" fill="url(#paint58_linear)"/>
<path d="M637.057 278.841L637.096 280.375C637.096 280.133 636.82 279.931 636.19 279.81C634.143 279.366 632.017 280.214 630.678 280.86C630.284 281.062 629.93 281.223 629.694 281.344L629.654 279.81C629.891 279.689 630.206 279.528 630.639 279.326C631.977 278.68 634.104 277.832 636.151 278.276C636.82 278.397 637.057 278.599 637.057 278.841Z" fill="url(#paint59_linear)"/>
<path d="M618.788 280.575L618.827 282.069L616.662 281.585L616.622 280.051L618.788 280.575Z" fill="url(#paint60_linear)"/>
<path d="M641.425 278.156L641.465 279.691C641.465 280.256 640.592 280.898 639.293 281.585L639.254 280.05C640.553 279.364 641.425 278.722 641.425 278.156Z" fill="url(#paint61_linear)"/>
<path d="M637.847 280.785L637.883 282.352C637.489 282.554 637.095 282.715 636.662 282.917L636.564 281.378C636.957 281.176 637.453 280.947 637.847 280.785Z" fill="url(#paint62_linear)"/>
<path d="M641.151 281.547L641.191 283.08L637.883 282.314L637.844 280.82L641.151 281.547Z" fill="url(#paint63_linear)"/>
<path d="M642.617 280.859L642.657 282.393L641.175 283.075L641.136 281.541L642.617 280.859Z" fill="url(#paint64_linear)"/>
<path fill-rule="evenodd" clip-rule="evenodd" d="M621.7 281.344L621.7 281.344C621.228 281.263 620.559 281.263 619.929 281.546L619.929 281.546L618.826 282.071L618.787 280.577L619.889 280.052L619.928 281.503L619.889 280.012C620.519 279.729 621.189 279.769 621.661 279.81L621.661 279.81L625.48 280.698L625.504 282.194L621.7 281.344ZM630.835 281.909L625.48 280.698L625.504 282.194L630.853 283.398L630.853 283.436C631.009 283.476 631.225 283.563 631.229 283.643L631.189 282.111C631.15 282.03 630.993 281.95 630.835 281.909Z" fill="url(#paint65_linear)"/>
<path d="M638.451 282.852L638.48 284.363L635.083 283.604L635.046 282.066L638.451 282.852Z" fill="url(#paint66_linear)"/>
<path d="M639.97 282.152L640.009 283.646L638.473 284.372L638.434 282.838L639.97 282.152Z" fill="url(#paint67_linear)"/>
<path d="M633.159 277.025C635.088 276.419 637.135 276.258 639.537 276.944C642.529 277.792 641.624 278.842 639.262 280.093L642.648 280.86L641.151 281.587L637.805 280.82C637.411 281.022 637.017 281.183 636.584 281.385L639.931 282.152L638.435 282.879L635.046 282.066C634.692 282.227 634.34 282.435 633.946 282.637L631.977 283.566L629.851 282.879L630.954 282.354C631.387 282.152 631.072 281.991 630.836 281.91L625.481 280.699C625.481 280.699 625.52 280.699 625.52 280.659C625.56 280.659 625.599 280.618 625.638 280.618C625.56 280.659 625.52 280.659 625.481 280.699L621.662 279.851C621.189 279.77 620.52 279.77 619.89 280.053L618.788 280.578L616.622 280.093L618.709 279.084C619.024 278.922 619.339 278.801 619.654 278.64L616.307 277.873L617.803 277.146L621.111 277.873C621.504 277.671 621.898 277.469 622.292 277.307L619.024 276.54L620.52 275.813L623.867 276.581C626.032 275.692 628.395 275.127 630.993 275.612C632.922 275.975 633.434 276.459 633.159 277.025ZM634.93 280.457C636.269 279.811 638.198 278.761 636.151 278.276C634.104 277.832 631.977 278.68 630.639 279.326C630.245 279.528 629.891 279.69 629.654 279.811L634.143 280.82C634.34 280.699 634.615 280.578 634.93 280.457ZM623.552 278.397L627.646 279.326C627.804 279.245 628.04 279.124 628.316 279.003C629.418 278.478 631.033 277.59 629.143 277.146C627.292 276.742 625.52 277.428 624.378 277.953C624.024 278.155 623.749 278.317 623.552 278.397Z" fill="white"/>
<path d="M632.016 283.526V285.06L629.89 284.374L629.851 282.84L632.016 283.526Z" fill="url(#paint68_linear)"/>
<path fill-rule="evenodd" clip-rule="evenodd" d="M635.087 283.609L635.048 282.074C634.694 282.276 634.341 282.439 633.946 282.631L632.016 283.528V285.062L633.985 284.133C634.379 283.932 634.733 283.77 635.087 283.609Z" fill="url(#paint69_linear)"/>
</g>
<path d="M631.75 278.268C647.403 278.144 660.057 273.525 660.015 267.953C659.972 262.381 647.249 257.966 631.597 258.09C615.945 258.215 603.29 262.833 603.333 268.405C603.375 273.977 616.098 278.393 631.75 278.268Z" fill="#FFCA39"/>
<path d="M660.012 267.703L660.093 277.418C660.093 279.702 657.947 282.027 653.534 283.937C643.534 288.296 625.638 289.002 613.614 285.515C606.893 283.605 603.411 280.74 603.411 277.875L603.33 268.16C603.371 271.066 606.812 273.889 613.533 275.841C625.557 279.328 643.453 278.623 653.453 274.263C657.866 272.312 660.012 269.987 660.012 267.703Z" fill="url(#paint70_linear)"/>
<g filter="url(#filter39_i)">
<path d="M631.71 273.598C643.824 273.501 653.625 270.735 653.6 267.419C653.574 264.103 643.733 261.494 631.619 261.59C619.504 261.687 609.703 264.454 609.729 267.769C609.754 271.085 619.595 273.695 631.71 273.598Z" fill="#FFCA39"/>
</g>
<g filter="url(#filter40_d)">
<path d="M624.118 264.822L624.157 266.315L620.889 265.588L620.85 264.055L624.118 264.822Z" fill="url(#paint71_linear)"/>
<path d="M635.063 264.258L635.103 265.791C635.103 265.872 635.063 265.993 635.024 266.074L634.984 264.54C635.024 264.419 635.063 264.339 635.063 264.258Z" fill="url(#paint72_linear)"/>
<path d="M631.907 265.205L631.834 266.759C631.834 266.557 631.598 266.355 630.968 266.234C629.118 265.83 627.346 266.516 626.204 267.041C625.85 267.203 625.574 267.364 625.377 267.445L625.338 265.911C625.535 265.83 625.85 265.618 626.204 265.457C627.307 264.932 629.118 264.205 630.968 264.649C631.598 264.771 631.907 265.004 631.907 265.205Z" fill="url(#paint73_linear)"/>
<path d="M621.479 266.117L621.518 267.651L618.172 266.884L618.132 265.391L621.479 266.117Z" fill="url(#paint74_linear)"/>
<path d="M638.882 266.357L638.921 267.891C638.921 267.649 638.646 267.447 638.016 267.326C635.968 266.882 633.842 267.73 632.503 268.376C632.11 268.577 631.755 268.739 631.519 268.86L631.48 267.326C631.716 267.205 632.031 267.043 632.464 266.841C633.803 266.195 635.929 265.347 637.976 265.791C638.646 265.913 638.882 266.114 638.882 266.357Z" fill="url(#paint75_linear)"/>
<path d="M620.614 268.091L620.653 269.584L618.487 269.1L618.448 267.566L620.614 268.091Z" fill="url(#paint76_linear)"/>
<path d="M643.251 265.672L643.29 267.206C643.29 267.771 642.418 268.414 641.118 269.1L641.079 267.566C642.378 266.879 643.251 266.237 643.251 265.672Z" fill="url(#paint77_linear)"/>
<path d="M639.673 268.301L639.71 269.868C639.316 270.069 638.922 270.231 638.489 270.433L638.39 268.894C638.784 268.692 639.28 268.462 639.673 268.301Z" fill="url(#paint78_linear)"/>
<path d="M642.977 269.062L643.016 270.596L639.709 269.829L639.669 268.336L642.977 269.062Z" fill="url(#paint79_linear)"/>
<path d="M644.444 268.375L644.483 269.909L643.002 270.59L642.963 269.057L644.444 268.375Z" fill="url(#paint80_linear)"/>
<path fill-rule="evenodd" clip-rule="evenodd" d="M623.527 268.86L623.527 268.86C623.055 268.779 622.385 268.779 621.755 269.062L621.755 269.062L620.653 269.586L620.614 268.093L621.716 267.568L621.754 269.019L621.716 267.527C622.346 267.245 623.015 267.285 623.488 267.325L623.488 267.325L627.307 268.214L627.331 269.71L623.527 268.86ZM632.662 269.425L627.307 268.214L627.331 269.71L632.68 270.914L632.68 270.952C632.836 270.992 633.051 271.079 633.055 271.159L633.016 269.627C632.977 269.546 632.819 269.465 632.662 269.425Z" fill="url(#paint81_linear)"/>
<path d="M640.276 270.367L640.305 271.879L636.908 271.12L636.872 269.582L640.276 270.367Z" fill="url(#paint82_linear)"/>
<path d="M641.796 269.668L641.835 271.161L640.3 271.888L640.26 270.354L641.796 269.668Z" fill="url(#paint83_linear)"/>
<path d="M634.984 264.54C636.914 263.935 638.961 263.773 641.363 264.46C644.355 265.307 643.45 266.357 641.087 267.609L644.473 268.376L642.977 269.103L639.631 268.336C639.237 268.538 638.843 268.699 638.41 268.901L641.757 269.668L640.26 270.395L636.872 269.581C636.518 269.743 636.166 269.951 635.772 270.153L633.803 271.081L631.677 270.395L632.78 269.87C633.213 269.668 632.898 269.507 632.661 269.426L627.307 268.215C627.307 268.215 627.346 268.215 627.346 268.174C627.385 268.174 627.425 268.134 627.464 268.134C627.385 268.174 627.346 268.174 627.307 268.215L623.488 267.367C623.015 267.286 622.346 267.286 621.716 267.569L620.613 268.093L618.448 267.609L620.535 266.6C620.85 266.438 621.165 266.317 621.48 266.155L618.133 265.388L619.629 264.661L622.936 265.388C623.33 265.186 623.724 264.984 624.118 264.823L620.85 264.056L622.346 263.329L625.692 264.096C627.858 263.208 630.22 262.643 632.819 263.127C634.748 263.491 635.26 263.975 634.984 264.54ZM636.756 267.972C638.095 267.326 640.024 266.276 637.977 265.792C635.929 265.348 633.803 266.196 632.465 266.842C632.071 267.044 631.717 267.205 631.48 267.326L635.969 268.336C636.166 268.215 636.441 268.093 636.756 267.972ZM625.377 265.913L629.472 266.842C629.63 266.761 629.866 266.64 630.142 266.519C631.244 265.994 632.858 265.106 630.968 264.661C629.118 264.258 627.346 264.944 626.204 265.469C625.85 265.671 625.574 265.832 625.377 265.913Z" fill="white"/>
<path d="M633.842 271.042V272.575L631.716 271.889L631.677 270.355L633.842 271.042Z" fill="url(#paint84_linear)"/>
<path fill-rule="evenodd" clip-rule="evenodd" d="M636.913 271.12L636.874 269.586C636.52 269.788 636.167 269.95 635.772 270.143L633.842 271.039V272.574L635.811 271.645C636.205 271.443 636.559 271.282 636.913 271.12Z" fill="url(#paint85_linear)"/>
</g>
<g filter="url(#filter41_d)">
<circle cx="132.547" cy="23.5471" r="7.54708" fill="#EE21E6"/>
</g>
<g filter="url(#filter42_d)">
<circle cx="55.5471" cy="533.547" r="7.54708" fill="#EE21E6"/>
</g>
<defs>
<filter id="filter0_d" x="126.7" y="54.776" width="666.543" height="666.543" filterUnits="userSpaceOnUse" color-interpolation-filters="sRGB">
<feFlood flood-opacity="0" result="BackgroundImageFix"/>
<feColorMatrix in="SourceAlpha" type="matrix" values="0 0 0 0 0 0 0 0 0 0 0 0 0 0 0 0 0 0 127 0"/>
<feOffset dy="26.5478"/>
<feGaussianBlur stdDeviation="20.8859"/>
<feColorMatrix type="matrix" values="0 0 0 0 0.929412 0 0 0 0 0.129412 0 0 0 0 0.901961 0 0 0 0.3 0"/>
<feBlend mode="normal" in2="BackgroundImageFix" result="effect1_dropShadow"/>
<feBlend mode="normal" in="SourceGraphic" in2="effect1_dropShadow" result="shape"/>
</filter>
<filter id="filter1_f" x="52.6243" y="201.588" width="297.762" height="224.237" filterUnits="userSpaceOnUse" color-interpolation-filters="sRGB">
<feFlood flood-opacity="0" result="BackgroundImageFix"/>
<feBlend mode="normal" in="SourceGraphic" in2="BackgroundImageFix" result="shape"/>
<feGaussianBlur stdDeviation="18.9815" result="effect1_foregroundBlur"/>
</filter>
<filter id="filter2_f" x="328.542" y="204.589" width="86.7182" height="62.555" filterUnits="userSpaceOnUse" color-interpolation-filters="sRGB">
<feFlood flood-opacity="0" result="BackgroundImageFix"/>
<feBlend mode="normal" in="SourceGraphic" in2="BackgroundImageFix" result="shape"/>
<feGaussianBlur stdDeviation="6.98291" result="effect1_foregroundBlur"/>
</filter>
<filter id="filter3_f" x="299.735" y="262.019" width="60.5438" height="61.4135" filterUnits="userSpaceOnUse" color-interpolation-filters="sRGB">
<feFlood flood-opacity="0" result="BackgroundImageFix"/>
<feBlend mode="normal" in="SourceGraphic" in2="BackgroundImageFix" result="shape"/>
<feGaussianBlur stdDeviation="6.98291" result="effect1_foregroundBlur"/>
</filter>
<filter id="filter4_f" x="307.562" y="244.624" width="62.2831" height="63.1528" filterUnits="userSpaceOnUse" color-interpolation-filters="sRGB">
<feFlood flood-opacity="0" result="BackgroundImageFix"/>
<feBlend mode="normal" in="SourceGraphic" in2="BackgroundImageFix" result="shape"/>
<feGaussianBlur stdDeviation="6.98291" result="effect1_foregroundBlur"/>
</filter>
<filter id="filter5_f" x="315.824" y="226.796" width="60.5438" height="61.4135" filterUnits="userSpaceOnUse" color-interpolation-filters="sRGB">
<feFlood flood-opacity="0" result="BackgroundImageFix"/>
<feBlend mode="normal" in="SourceGraphic" in2="BackgroundImageFix" result="shape"/>
<feGaussianBlur stdDeviation="6.98291" result="effect1_foregroundBlur"/>
</filter>
<filter id="filter6_f" x="62.2127" y="184.342" width="293.613" height="72.1763" filterUnits="userSpaceOnUse" color-interpolation-filters="sRGB">
<feFlood flood-opacity="0" result="BackgroundImageFix"/>
<feBlend mode="normal" in="SourceGraphic" in2="BackgroundImageFix" result="shape"/>
<feGaussianBlur stdDeviation="10.157" result="effect1_foregroundBlur"/>
</filter>
<filter id="filter7_f" x="313.343" y="271.06" width="71.9152" height="47.2224" filterUnits="userSpaceOnUse" color-interpolation-filters="sRGB">
<feFlood flood-opacity="0" result="BackgroundImageFix"/>
<feBlend mode="normal" in="SourceGraphic" in2="BackgroundImageFix" result="shape"/>
<feGaussianBlur stdDeviation="7.30032" result="effect1_foregroundBlur"/>
</filter>
<filter id="filter8_f" x="320.073" y="249.852" width="83.7211" height="48.1438" filterUnits="userSpaceOnUse" color-interpolation-filters="sRGB">
<feFlood flood-opacity="0" result="BackgroundImageFix"/>
<feBlend mode="normal" in="SourceGraphic" in2="BackgroundImageFix" result="shape"/>
<feGaussianBlur stdDeviation="7.30032" result="effect1_foregroundBlur"/>
</filter>
<filter id="filter9_f" x="324.973" y="226.81" width="92.3348" height="52.8926" filterUnits="userSpaceOnUse" color-interpolation-filters="sRGB">
<feFlood flood-opacity="0" result="BackgroundImageFix"/>
<feBlend mode="normal" in="SourceGraphic" in2="BackgroundImageFix" result="shape"/>
<feGaussianBlur stdDeviation="7.30032" result="effect1_foregroundBlur"/>
</filter>
<filter id="filter10_f" x="362.017" y="275.065" width="30.1325" height="29.817" filterUnits="userSpaceOnUse" color-interpolation-filters="sRGB">
<feFlood flood-opacity="0" result="BackgroundImageFix"/>
<feBlend mode="normal" in="SourceGraphic" in2="BackgroundImageFix" result="shape"/>
<feGaussianBlur stdDeviation="3.33275" result="effect1_foregroundBlur"/>
</filter>
<filter id="filter11_f" x="377.024" y="255.139" width="31.4677" height="31.1391" filterUnits="userSpaceOnUse" color-interpolation-filters="sRGB">
<feFlood flood-opacity="0" result="BackgroundImageFix"/>
<feBlend mode="normal" in="SourceGraphic" in2="BackgroundImageFix" result="shape"/>
<feGaussianBlur stdDeviation="3.33275" result="effect1_foregroundBlur"/>
</filter>
<filter id="filter12_f" x="390.643" y="232.584" width="33.4593" height="33.0814" filterUnits="userSpaceOnUse" color-interpolation-filters="sRGB">
<feFlood flood-opacity="0" result="BackgroundImageFix"/>
<feBlend mode="normal" in="SourceGraphic" in2="BackgroundImageFix" result="shape"/>
<feGaussianBlur stdDeviation="3.33275" result="effect1_foregroundBlur"/>
</filter>
<filter id="filter13_f" x="346.502" y="296.03" width="25.8762" height="25.6406" filterUnits="userSpaceOnUse" color-interpolation-filters="sRGB">
<feFlood flood-opacity="0" result="BackgroundImageFix"/>
<feBlend mode="normal" in="SourceGraphic" in2="BackgroundImageFix" result="shape"/>
<feGaussianBlur stdDeviation="3.33275" result="effect1_foregroundBlur"/>
</filter>
<filter id="filter14_f" x="349.24" y="220.528" width="71.2509" height="41.8864" filterUnits="userSpaceOnUse" color-interpolation-filters="sRGB">
<feFlood flood-opacity="0" result="BackgroundImageFix"/>
<feBlend mode="normal" in="SourceGraphic" in2="BackgroundImageFix" result="shape"/>
<feGaussianBlur stdDeviation="4.91578" result="effect1_foregroundBlur"/>
</filter>
<filter id="filter15_f" x="336.763" y="242.192" width="65.3701" height="43.9867" filterUnits="userSpaceOnUse" color-interpolation-filters="sRGB">
<feFlood flood-opacity="0" result="BackgroundImageFix"/>
<feBlend mode="normal" in="SourceGraphic" in2="BackgroundImageFix" result="shape"/>
<feGaussianBlur stdDeviation="4.91578" result="effect1_foregroundBlur"/>
</filter>
<filter id="filter16_f" x="329.643" y="263.77" width="61.9311" height="41.2021" filterUnits="userSpaceOnUse" color-interpolation-filters="sRGB">
<feFlood flood-opacity="0" result="BackgroundImageFix"/>
<feBlend mode="normal" in="SourceGraphic" in2="BackgroundImageFix" result="shape"/>
<feGaussianBlur stdDeviation="4.91578" result="effect1_foregroundBlur"/>
</filter>
<filter id="filter17_f" x="315.874" y="279.962" width="55.775" height="46.2249" filterUnits="userSpaceOnUse" color-interpolation-filters="sRGB">
<feFlood flood-opacity="0" result="BackgroundImageFix"/>
<feBlend mode="normal" in="SourceGraphic" in2="BackgroundImageFix" result="shape"/>
<feGaussianBlur stdDeviation="6.0876" result="effect1_foregroundBlur"/>
</filter>
<filter id="filter18_f" x="322.349" y="256.973" width="66.9113" height="52.4088" filterUnits="userSpaceOnUse" color-interpolation-filters="sRGB">
<feFlood flood-opacity="0" result="BackgroundImageFix"/>
<feBlend mode="normal" in="SourceGraphic" in2="BackgroundImageFix" result="shape"/>
<feGaussianBlur stdDeviation="6.0876" result="effect1_foregroundBlur"/>
</filter>
<filter id="filter19_f" x="327.348" y="206.325" width="65.2874" height="41.0805" filterUnits="userSpaceOnUse" color-interpolation-filters="sRGB">
<feFlood flood-opacity="0" result="BackgroundImageFix"/>
<feBlend mode="normal" in="SourceGraphic" in2="BackgroundImageFix" result="shape"/>
<feGaussianBlur stdDeviation="7.30032" result="effect1_foregroundBlur"/>
</filter>
<filter id="filter20_f" x="367.755" y="211.181" width="62.0917" height="46.7058" filterUnits="userSpaceOnUse" color-interpolation-filters="sRGB">
<feFlood flood-opacity="0" result="BackgroundImageFix"/>
<feBlend mode="normal" in="SourceGraphic" in2="BackgroundImageFix" result="shape"/>
<feGaussianBlur stdDeviation="7.30032" result="effect1_foregroundBlur"/>
</filter>
<filter id="filter21_i" x="399.244" y="230.984" width="46.2713" height="7.37352" filterUnits="userSpaceOnUse" color-interpolation-filters="sRGB">
<feFlood flood-opacity="0" result="BackgroundImageFix"/>
<feBlend mode="normal" in="SourceGraphic" in2="BackgroundImageFix" result="shape"/>
<feColorMatrix in="SourceAlpha" type="matrix" values="0 0 0 0 0 0 0 0 0 0 0 0 0 0 0 0 0 0 127 0" result="hardAlpha"/>
<feOffset dx="-3.32537" dy="2.37526"/>
<feGaussianBlur stdDeviation="0.950105"/>
<feComposite in2="hardAlpha" operator="arithmetic" k2="-1" k3="1"/>
<feColorMatrix type="matrix" values="0 0 0 0 0.882353 0 0 0 0 0.701961 0 0 0 0 0.196078 0 0 0 1 0"/>
<feBlend mode="normal" in2="shape" result="effect1_innerShadow"/>
</filter>
<filter id="filter22_f" x="381.097" y="216.864" width="37.3543" height="22.5538" filterUnits="userSpaceOnUse" color-interpolation-filters="sRGB">
<feFlood flood-opacity="0" result="BackgroundImageFix"/>
<feBlend mode="normal" in="SourceGraphic" in2="BackgroundImageFix" result="shape"/>
<feGaussianBlur stdDeviation="3.03076" result="effect1_foregroundBlur"/>
</filter>
<filter id="filter23_f" x="316.326" y="179.454" width="93.5266" height="54.0843" filterUnits="userSpaceOnUse" color-interpolation-filters="sRGB">
<feFlood flood-opacity="0" result="BackgroundImageFix"/>
<feBlend mode="normal" in="SourceGraphic" in2="BackgroundImageFix" result="shape"/>
<feGaussianBlur stdDeviation="4.76108" result="effect1_foregroundBlur"/>
</filter>
<filter id="filter24_f" x="316.326" y="179.454" width="93.5266" height="54.0843" filterUnits="userSpaceOnUse" color-interpolation-filters="sRGB">
<feFlood flood-opacity="0" result="BackgroundImageFix"/>
<feBlend mode="normal" in="SourceGraphic" in2="BackgroundImageFix" result="shape"/>
<feGaussianBlur stdDeviation="4.76108" result="effect1_foregroundBlur"/>
</filter>
<filter id="filter25_f" x="319.788" y="191.648" width="56.5277" height="45.657" filterUnits="userSpaceOnUse" color-interpolation-filters="sRGB">
<feFlood flood-opacity="0" result="BackgroundImageFix"/>
<feBlend mode="normal" in="SourceGraphic" in2="BackgroundImageFix" result="shape"/>
<feGaussianBlur stdDeviation="6.30502" result="effect1_foregroundBlur"/>
</filter>
<filter id="filter26_f" x="157.565" y="125.522" width="605.804" height="605.804" filterUnits="userSpaceOnUse" color-interpolation-filters="sRGB">
<feFlood flood-opacity="0" result="BackgroundImageFix"/>
<feBlend mode="normal" in="SourceGraphic" in2="BackgroundImageFix" result="shape"/>
<feGaussianBlur stdDeviation="66.4303" result="effect1_foregroundBlur"/>
</filter>
<filter id="filter27_f" x="225.639" y="327.445" width="522.751" height="328.142" filterUnits="userSpaceOnUse" color-interpolation-filters="sRGB">
<feFlood flood-opacity="0" result="BackgroundImageFix"/>
<feBlend mode="normal" in="SourceGraphic" in2="BackgroundImageFix" result="shape"/>
<feGaussianBlur stdDeviation="35.8636" result="effect1_foregroundBlur"/>
</filter>
<filter id="filter28_f" x="341.983" y="444.784" width="259.67" height="113.031" filterUnits="userSpaceOnUse" color-interpolation-filters="sRGB">
<feFlood flood-opacity="0" result="BackgroundImageFix"/>
<feBlend mode="normal" in="SourceGraphic" in2="BackgroundImageFix" result="shape"/>
<feGaussianBlur stdDeviation="7.93197" result="effect1_foregroundBlur"/>
</filter>
<filter id="filter29_f" x="250.612" y="407.063" width="100.015" height="49.1338" filterUnits="userSpaceOnUse" color-interpolation-filters="sRGB">
<feFlood flood-opacity="0" result="BackgroundImageFix"/>
<feBlend mode="normal" in="SourceGraphic" in2="BackgroundImageFix" result="shape"/>
<feGaussianBlur stdDeviation="8.34347" result="effect1_foregroundBlur"/>
</filter>
<filter id="filter30_i" x="268.658" y="425.992" width="47.3957" height="12.711" filterUnits="userSpaceOnUse" color-interpolation-filters="sRGB">
<feFlood flood-opacity="0" result="BackgroundImageFix"/>
<feBlend mode="normal" in="SourceGraphic" in2="BackgroundImageFix" result="shape"/>
<feColorMatrix in="SourceAlpha" type="matrix" values="0 0 0 0 0 0 0 0 0 0 0 0 0 0 0 0 0 0 127 0" result="hardAlpha"/>
<feOffset dx="-2.49047" dy="0.415078"/>
<feGaussianBlur stdDeviation="1.66031"/>
<feComposite in2="hardAlpha" operator="arithmetic" k2="-1" k3="1"/>
<feColorMatrix type="matrix" values="0 0 0 0 0 0 0 0 0 0 0 0 0 0 0 0 0 0 0.13 0"/>
<feBlend mode="normal" in2="shape" result="effect1_innerShadow"/>
</filter>
<filter id="filter31_d" x="279.605" y="415.16" width="28.4241" height="12.3445" filterUnits="userSpaceOnUse" color-interpolation-filters="sRGB">
<feFlood flood-opacity="0" result="BackgroundImageFix"/>
<feColorMatrix in="SourceAlpha" type="matrix" values="0 0 0 0 0 0 0 0 0 0 0 0 0 0 0 0 0 0 127 0"/>
<feOffset dy="1.57241"/>
<feGaussianBlur stdDeviation="0.786206"/>
<feColorMatrix type="matrix" values="0 0 0 0 0.909804 0 0 0 0 0.694117 0 0 0 0 0.109804 0 0 0 0.62 0"/>
<feBlend mode="normal" in2="BackgroundImageFix" result="effect1_dropShadow"/>
<feBlend mode="normal" in="SourceGraphic" in2="effect1_dropShadow" result="shape"/>
</filter>
<filter id="filter32_i" x="270.848" y="413.543" width="47.3957" height="12.7109" filterUnits="userSpaceOnUse" color-interpolation-filters="sRGB">
<feFlood flood-opacity="0" result="BackgroundImageFix"/>
<feBlend mode="normal" in="SourceGraphic" in2="BackgroundImageFix" result="shape"/>
<feColorMatrix in="SourceAlpha" type="matrix" values="0 0 0 0 0 0 0 0 0 0 0 0 0 0 0 0 0 0 127 0" result="hardAlpha"/>
<feOffset dx="-2.49047" dy="0.415078"/>
<feGaussianBlur stdDeviation="1.66031"/>
<feComposite in2="hardAlpha" operator="arithmetic" k2="-1" k3="1"/>
<feColorMatrix type="matrix" values="0 0 0 0 0 0 0 0 0 0 0 0 0 0 0 0 0 0 0.13 0"/>
<feBlend mode="normal" in2="shape" result="effect1_innerShadow"/>
</filter>
<filter id="filter33_d" x="281.794" y="415" width="28.4241" height="12.3445" filterUnits="userSpaceOnUse" color-interpolation-filters="sRGB">
<feFlood flood-opacity="0" result="BackgroundImageFix"/>
<feColorMatrix in="SourceAlpha" type="matrix" values="0 0 0 0 0 0 0 0 0 0 0 0 0 0 0 0 0 0 127 0"/>
<feOffset dy="1.57241"/>
<feGaussianBlur stdDeviation="0.786206"/>
<feColorMatrix type="matrix" values="0 0 0 0 0.909804 0 0 0 0 0.694117 0 0 0 0 0.109804 0 0 0 0.62 0"/>
<feBlend mode="normal" in2="BackgroundImageFix" result="effect1_dropShadow"/>
<feBlend mode="normal" in="SourceGraphic" in2="effect1_dropShadow" result="shape"/>
</filter>
<filter id="filter34_f" x="582.892" y="273.567" width="100.015" height="49.1338" filterUnits="userSpaceOnUse" color-interpolation-filters="sRGB">
<feFlood flood-opacity="0" result="BackgroundImageFix"/>
<feBlend mode="normal" in="SourceGraphic" in2="BackgroundImageFix" result="shape"/>
<feGaussianBlur stdDeviation="8.34347" result="effect1_foregroundBlur"/>
</filter>
<filter id="filter35_i" x="609.122" y="285.934" width="46.3043" height="12.4183" filterUnits="userSpaceOnUse" color-interpolation-filters="sRGB">
<feFlood flood-opacity="0" result="BackgroundImageFix"/>
<feBlend mode="normal" in="SourceGraphic" in2="BackgroundImageFix" result="shape"/>
<feColorMatrix in="SourceAlpha" type="matrix" values="0 0 0 0 0 0 0 0 0 0 0 0 0 0 0 0 0 0 127 0" result="hardAlpha"/>
<feOffset dx="-2.43312" dy="0.40552"/>
<feGaussianBlur stdDeviation="1.62208"/>
<feComposite in2="hardAlpha" operator="arithmetic" k2="-1" k3="1"/>
<feColorMatrix type="matrix" values="0 0 0 0 0 0 0 0 0 0 0 0 0 0 0 0 0 0 0.13 0"/>
<feBlend mode="normal" in2="shape" result="effect1_innerShadow"/>
</filter>
<filter id="filter36_d" x="618.431" y="287.293" width="29.4069" height="12.685" filterUnits="userSpaceOnUse" color-interpolation-filters="sRGB">
<feFlood flood-opacity="0" result="BackgroundImageFix"/>
<feColorMatrix in="SourceAlpha" type="matrix" values="0 0 0 0 0 0 0 0 0 0 0 0 0 0 0 0 0 0 127 0"/>
<feOffset dy="1.52826"/>
<feGaussianBlur stdDeviation="0.764132"/>
<feColorMatrix type="matrix" values="0 0 0 0 0.909804 0 0 0 0 0.694118 0 0 0 0 0.109804 0 0 0 0.63 0"/>
<feBlend mode="normal" in2="BackgroundImageFix" result="effect1_dropShadow"/>
<feBlend mode="normal" in="SourceGraphic" in2="effect1_dropShadow" result="shape"/>
</filter>
<filter id="filter37_i" x="605.469" y="274.07" width="46.3043" height="12.4183" filterUnits="userSpaceOnUse" color-interpolation-filters="sRGB">
<feFlood flood-opacity="0" result="BackgroundImageFix"/>
<feBlend mode="normal" in="SourceGraphic" in2="BackgroundImageFix" result="shape"/>
<feColorMatrix in="SourceAlpha" type="matrix" values="0 0 0 0 0 0 0 0 0 0 0 0 0 0 0 0 0 0 127 0" result="hardAlpha"/>
<feOffset dx="-2.43312" dy="0.40552"/>
<feGaussianBlur stdDeviation="1.62208"/>
<feComposite in2="hardAlpha" operator="arithmetic" k2="-1" k3="1"/>
<feColorMatrix type="matrix" values="0 0 0 0 0 0 0 0 0 0 0 0 0 0 0 0 0 0 0.13 0"/>
<feBlend mode="normal" in2="shape" result="effect1_innerShadow"/>
</filter>
<filter id="filter38_d" x="614.779" y="275.434" width="29.4063" height="12.685" filterUnits="userSpaceOnUse" color-interpolation-filters="sRGB">
<feFlood flood-opacity="0" result="BackgroundImageFix"/>
<feColorMatrix in="SourceAlpha" type="matrix" values="0 0 0 0 0 0 0 0 0 0 0 0 0 0 0 0 0 0 127 0"/>
<feOffset dy="1.52826"/>
<feGaussianBlur stdDeviation="0.764132"/>
<feColorMatrix type="matrix" values="0 0 0 0 0.909804 0 0 0 0 0.694118 0 0 0 0 0.109804 0 0 0 0.63 0"/>
<feBlend mode="normal" in2="BackgroundImageFix" result="effect1_dropShadow"/>
<feBlend mode="normal" in="SourceGraphic" in2="effect1_dropShadow" result="shape"/>
</filter>
<filter id="filter39_i" x="607.295" y="261.586" width="46.3043" height="12.4183" filterUnits="userSpaceOnUse" color-interpolation-filters="sRGB">
<feFlood flood-opacity="0" result="BackgroundImageFix"/>
<feBlend mode="normal" in="SourceGraphic" in2="BackgroundImageFix" result="shape"/>
<feColorMatrix in="SourceAlpha" type="matrix" values="0 0 0 0 0 0 0 0 0 0 0 0 0 0 0 0 0 0 127 0" result="hardAlpha"/>
<feOffset dx="-2.43312" dy="0.40552"/>
<feGaussianBlur stdDeviation="1.62208"/>
<feComposite in2="hardAlpha" operator="arithmetic" k2="-1" k3="1"/>
<feColorMatrix type="matrix" values="0 0 0 0 0 0 0 0 0 0 0 0 0 0 0 0 0 0 0.13 0"/>
<feBlend mode="normal" in2="shape" result="effect1_innerShadow"/>
</filter>
<filter id="filter40_d" x="616.604" y="262.949" width="29.4077" height="12.6826" filterUnits="userSpaceOnUse" color-interpolation-filters="sRGB">
<feFlood flood-opacity="0" result="BackgroundImageFix"/>
<feColorMatrix in="SourceAlpha" type="matrix" values="0 0 0 0 0 0 0 0 0 0 0 0 0 0 0 0 0 0 127 0"/>
<feOffset dy="1.52826"/>
<feGaussianBlur stdDeviation="0.764132"/>
<feColorMatrix type="matrix" values="0 0 0 0 0.909804 0 0 0 0 0.694118 0 0 0 0 0.109804 0 0 0 0.63 0"/>
<feBlend mode="normal" in2="BackgroundImageFix" result="effect1_dropShadow"/>
<feBlend mode="normal" in="SourceGraphic" in2="effect1_dropShadow" result="shape"/>
</filter>
<filter id="filter41_d" x="77.3342" y="0.111406" width="110.426" height="110.426" filterUnits="userSpaceOnUse" color-interpolation-filters="sRGB">
<feFlood flood-opacity="0" result="BackgroundImageFix"/>
<feColorMatrix in="SourceAlpha" type="matrix" values="0 0 0 0 0 0 0 0 0 0 0 0 0 0 0 0 0 0 127 0"/>
<feOffset dy="31.7772"/>
<feGaussianBlur stdDeviation="23.8329"/>
<feColorMatrix type="matrix" values="0 0 0 0 0.921569 0 0 0 0 0.129412 0 0 0 0 0.890196 0 0 0 0.3 0"/>
<feBlend mode="normal" in2="BackgroundImageFix" result="effect1_dropShadow"/>
<feBlend mode="normal" in="SourceGraphic" in2="effect1_dropShadow" result="shape"/>
</filter>
<filter id="filter42_d" x="0.334217" y="510.111" width="110.426" height="110.426" filterUnits="userSpaceOnUse" color-interpolation-filters="sRGB">
<feFlood flood-opacity="0" result="BackgroundImageFix"/>
<feColorMatrix in="SourceAlpha" type="matrix" values="0 0 0 0 0 0 0 0 0 0 0 0 0 0 0 0 0 0 127 0"/>
<feOffset dy="31.7772"/>
<feGaussianBlur stdDeviation="23.8329"/>
<feColorMatrix type="matrix" values="0 0 0 0 0.921569 0 0 0 0 0.129412 0 0 0 0 0.890196 0 0 0 0.3 0"/>
<feBlend mode="normal" in2="BackgroundImageFix" result="effect1_dropShadow"/>
<feBlend mode="normal" in="SourceGraphic" in2="effect1_dropShadow" result="shape"/>
</filter>
<linearGradient id="paint0_linear" x1="269.962" y1="336.534" x2="270.643" y2="198.486" gradientUnits="userSpaceOnUse">
<stop stop-color="#B9B6DC"/>
<stop offset="0.296559" stop-color="#BFBEE0"/>
<stop offset="0.523956" stop-color="#D2D2E9"/>
<stop offset="0.71179" stop-color="#E3E3F1"/>
<stop offset="1" stop-color="#F2F2F7"/>
</linearGradient>
<linearGradient id="paint1_linear" x1="265.087" y1="336.535" x2="265.786" y2="198.487" gradientUnits="userSpaceOnUse">
<stop stop-color="#B9B6DC"/>
<stop offset="0.296559" stop-color="#BFBEE0"/>
<stop offset="0.523956" stop-color="#D2D2E9"/>
<stop offset="0.71179" stop-color="#E3E3F1"/>
<stop offset="1" stop-color="#F2F2F7"/>
</linearGradient>
<linearGradient id="paint2_linear" x1="368.212" y1="299.352" x2="315.598" y2="308.482" gradientUnits="userSpaceOnUse">
<stop stop-color="#F7F7FB"/>
<stop offset="1" stop-color="#D1D1E9"/>
</linearGradient>
<linearGradient id="paint3_linear" x1="385.891" y1="280.531" x2="331.709" y2="289.933" gradientUnits="userSpaceOnUse">
<stop stop-color="#F7F7FB"/>
<stop offset="1" stop-color="#D1D1E9"/>
</linearGradient>
<linearGradient id="paint4_linear" x1="402.715" y1="261.251" x2="347.075" y2="269.361" gradientUnits="userSpaceOnUse">
<stop stop-color="#F7F7FB"/>
<stop offset="1" stop-color="#D1D1E9"/>
</linearGradient>
<linearGradient id="paint5_linear" x1="417.84" y1="240.797" x2="359.085" y2="250.992" gradientUnits="userSpaceOnUse">
<stop stop-color="#F7F7FB"/>
<stop offset="1" stop-color="#D1D1E9"/>
</linearGradient>
<linearGradient id="paint6_linear" x1="49.6578" y1="4.16591" x2="9.06405" y2="4.53818" gradientUnits="userSpaceOnUse">
<stop stop-color="white" stop-opacity="0"/>
<stop offset="1" stop-color="white"/>
</linearGradient>
<linearGradient id="paint7_linear" x1="44.5551" y1="4.69643" x2="8.13153" y2="4.96228" gradientUnits="userSpaceOnUse">
<stop stop-color="white" stop-opacity="0"/>
<stop offset="1" stop-color="white"/>
</linearGradient>
<linearGradient id="paint8_linear" x1="41.0537" y1="4.16591" x2="7.49265" y2="4.42036" gradientUnits="userSpaceOnUse">
<stop stop-color="white" stop-opacity="0"/>
<stop offset="1" stop-color="white"/>
</linearGradient>
<linearGradient id="paint9_linear" x1="28.8889" y1="7.63544" x2="6.73182" y2="12.6074" gradientUnits="userSpaceOnUse">
<stop stop-color="#B1B2D9"/>
<stop offset="1" stop-color="#B1B2D9" stop-opacity="0"/>
</linearGradient>
<linearGradient id="paint10_linear" x1="39.2323" y1="9.323" x2="9.48017" y2="16.7485" gradientUnits="userSpaceOnUse">
<stop stop-color="#B1B2D9"/>
<stop offset="1" stop-color="#B1B2D9" stop-opacity="0"/>
</linearGradient>
<linearGradient id="paint11_linear" x1="446.449" y1="243.258" x2="421.538" y2="267.852" gradientUnits="userSpaceOnUse">
<stop stop-color="#FFDF86"/>
<stop offset="0.546717" stop-color="#FFCA39"/>
<stop offset="0.890625" stop-color="#EABA35"/>
<stop offset="1" stop-color="#EFB925"/>
</linearGradient>
<linearGradient id="paint12_linear" x1="446.442" y1="243.358" x2="421.423" y2="267.861" gradientUnits="userSpaceOnUse">
<stop stop-color="#FFDF86"/>
<stop offset="0.546717" stop-color="#FFCA39"/>
<stop offset="0.760417" stop-color="#EABA35"/>
<stop offset="1" stop-color="#EEB928"/>
</linearGradient>
<linearGradient id="paint13_linear" x1="405.296" y1="216.668" x2="341.724" y2="213.137" gradientUnits="userSpaceOnUse">
<stop stop-color="#EBEBF4"/>
<stop offset="0.659079" stop-color="#EFEFF5"/>
<stop offset="1" stop-color="#F0F0F7" stop-opacity="0"/>
</linearGradient>
<linearGradient id="paint14_linear" x1="525.159" y1="395.378" x2="478.105" y2="540.967" gradientUnits="userSpaceOnUse">
<stop stop-color="#D9DBEE"/>
<stop offset="0.967981" stop-color="#B1B4DC"/>
</linearGradient>
<linearGradient id="paint15_linear" x1="463.916" y1="422.157" x2="413.405" y2="574.175" gradientUnits="userSpaceOnUse">
<stop stop-color="#8392CD"/>
<stop offset="0.178208" stop-color="#97A0D3"/>
<stop offset="0.333937" stop-color="#A3AAD7"/>
<stop offset="0.636464" stop-color="#B8B9DE"/>
<stop offset="1" stop-color="#F1F1F7"/>
</linearGradient>
<linearGradient id="paint16_linear" x1="486.266" y1="392.202" x2="311.5" y2="457.416" gradientUnits="userSpaceOnUse">
<stop stop-color="#D6D8ED"/>
<stop offset="1" stop-color="#B1B4DC"/>
</linearGradient>
<radialGradient id="paint17_radial" cx="0" cy="0" r="1" gradientUnits="userSpaceOnUse" gradientTransform="translate(266.837 436.782) rotate(-64.0076) scale(10.5595 19.9428)">
<stop stop-color="#FFCA39"/>
<stop offset="1" stop-color="#E1A807"/>
</radialGradient>
<linearGradient id="paint18_linear" x1="268.328" y1="441.051" x2="285.709" y2="462.879" gradientUnits="userSpaceOnUse">
<stop stop-color="#FFDF86"/>
<stop offset="0.484404" stop-color="#FFCA39"/>
<stop offset="1" stop-color="#E3A510"/>
</linearGradient>
<linearGradient id="paint19_linear" x1="282.139" y1="418.98" x2="282.592" y2="416.944" gradientUnits="userSpaceOnUse">
<stop stop-color="#F4C033"/>
<stop offset="1" stop-color="white"/>
</linearGradient>
<linearGradient id="paint20_linear" x1="289.518" y1="418.604" x2="289.089" y2="417.235" gradientUnits="userSpaceOnUse">
<stop stop-color="#F4C033"/>
<stop offset="1" stop-color="white"/>
</linearGradient>
<linearGradient id="paint21_linear" x1="304.047" y1="421.248" x2="304.047" y2="419.809" gradientUnits="userSpaceOnUse">
<stop stop-color="#F4C033"/>
<stop offset="1" stop-color="white"/>
</linearGradient>
<linearGradient id="paint22_linear" x1="288.824" y1="422.048" x2="288.351" y2="418.749" gradientUnits="userSpaceOnUse">
<stop stop-color="#F4C033"/>
<stop offset="1" stop-color="white"/>
</linearGradient>
<linearGradient id="paint23_linear" x1="302.518" y1="423.293" x2="302.645" y2="421.634" gradientUnits="userSpaceOnUse">
<stop stop-color="#F4C033"/>
<stop offset="1" stop-color="white"/>
</linearGradient>
<linearGradient id="paint24_linear" x1="305.564" y1="423.259" x2="305.03" y2="421.739" gradientUnits="userSpaceOnUse">
<stop stop-color="#F4C033"/>
<stop offset="1" stop-color="white"/>
</linearGradient>
<linearGradient id="paint25_linear" x1="295.543" y1="423.92" x2="295.926" y2="422.377" gradientUnits="userSpaceOnUse">
<stop stop-color="#F4C033"/>
<stop offset="1" stop-color="white"/>
</linearGradient>
<linearGradient id="paint26_linear" x1="299.482" y1="424.349" x2="299.052" y2="422.481" gradientUnits="userSpaceOnUse">
<stop stop-color="#F4C033"/>
<stop offset="1" stop-color="white"/>
</linearGradient>
<linearGradient id="paint27_linear" x1="270.518" y1="428.598" x2="289.253" y2="454.044" gradientUnits="userSpaceOnUse">
<stop stop-color="#FFDF86"/>
<stop offset="0.546717" stop-color="#FFCA39"/>
<stop offset="0.890625" stop-color="#EABA35"/>
<stop offset="1" stop-color="#EFB925"/>
</linearGradient>
<linearGradient id="paint28_linear" x1="284.328" y1="418.82" x2="284.781" y2="416.784" gradientUnits="userSpaceOnUse">
<stop stop-color="#F4C033"/>
<stop offset="1" stop-color="white"/>
</linearGradient>
<linearGradient id="paint29_linear" x1="291.708" y1="418.444" x2="291.278" y2="417.075" gradientUnits="userSpaceOnUse">
<stop stop-color="#F4C033"/>
<stop offset="1" stop-color="white"/>
</linearGradient>
<linearGradient id="paint30_linear" x1="306.236" y1="421.091" x2="306.236" y2="419.653" gradientUnits="userSpaceOnUse">
<stop stop-color="#F4C033"/>
<stop offset="1" stop-color="white"/>
</linearGradient>
<linearGradient id="paint31_linear" x1="291.013" y1="421.892" x2="290.54" y2="418.593" gradientUnits="userSpaceOnUse">
<stop stop-color="#F4C033"/>
<stop offset="1" stop-color="white"/>
</linearGradient>
<linearGradient id="paint32_linear" x1="304.707" y1="423.133" x2="304.835" y2="421.474" gradientUnits="userSpaceOnUse">
<stop stop-color="#F4C033"/>
<stop offset="1" stop-color="white"/>
</linearGradient>
<linearGradient id="paint33_linear" x1="307.753" y1="423.099" x2="307.219" y2="421.579" gradientUnits="userSpaceOnUse">
<stop stop-color="#F4C033"/>
<stop offset="1" stop-color="white"/>
</linearGradient>
<linearGradient id="paint34_linear" x1="297.732" y1="423.76" x2="298.115" y2="422.217" gradientUnits="userSpaceOnUse">
<stop stop-color="#F4C033"/>
<stop offset="1" stop-color="white"/>
</linearGradient>
<linearGradient id="paint35_linear" x1="301.671" y1="424.189" x2="301.241" y2="422.321" gradientUnits="userSpaceOnUse">
<stop stop-color="#F4C033"/>
<stop offset="1" stop-color="white"/>
</linearGradient>
<linearGradient id="paint36_linear" x1="595.414" y1="269.253" x2="644.706" y2="299.925" gradientUnits="userSpaceOnUse">
<stop stop-color="#FDC839"/>
<stop offset="1" stop-color="#D29E0C"/>
</linearGradient>
<linearGradient id="paint37_linear" x1="582.456" y1="293.927" x2="604.681" y2="334.091" gradientUnits="userSpaceOnUse">
<stop stop-color="#FFDF86"/>
<stop offset="0.421641" stop-color="#FFCA39"/>
<stop offset="0.794547" stop-color="#E8AF1A"/>
<stop offset="1" stop-color="#C69107"/>
</linearGradient>
<linearGradient id="paint38_linear" x1="623.806" y1="290.666" x2="624.358" y2="288.69" gradientUnits="userSpaceOnUse">
<stop offset="0.543659" stop-color="#F4C033"/>
<stop offset="1" stop-color="white"/>
</linearGradient>
<linearGradient id="paint39_linear" x1="636.851" y1="290.42" x2="636.786" y2="290.416" gradientUnits="userSpaceOnUse">
<stop stop-color="#F4C033"/>
<stop offset="1" stop-color="white"/>
</linearGradient>
<linearGradient id="paint40_linear" x1="630.079" y1="290.591" x2="629.965" y2="288.868" gradientUnits="userSpaceOnUse">
<stop stop-color="#F4C033"/>
<stop offset="1" stop-color="white"/>
</linearGradient>
<linearGradient id="paint41_linear" x1="620.845" y1="291.477" x2="621.129" y2="289.867" gradientUnits="userSpaceOnUse">
<stop stop-color="#F4C033"/>
<stop offset="1" stop-color="white"/>
</linearGradient>
<linearGradient id="paint42_linear" x1="637.217" y1="291.797" x2="636.819" y2="290.023" gradientUnits="userSpaceOnUse">
<stop stop-color="#F4C033"/>
<stop offset="1" stop-color="white"/>
</linearGradient>
<linearGradient id="paint43_linear" x1="621.028" y1="293.931" x2="621.386" y2="292.129" gradientUnits="userSpaceOnUse">
<stop offset="0.111255" stop-color="#F4C033"/>
<stop offset="1" stop-color="white"/>
</linearGradient>
<linearGradient id="paint44_linear" x1="644.518" y1="292.647" x2="643.675" y2="291.35" gradientUnits="userSpaceOnUse">
<stop stop-color="#F4C033"/>
<stop offset="1" stop-color="white"/>
</linearGradient>
<linearGradient id="paint45_linear" x1="641.029" y1="293.645" x2="640.69" y2="292.929" gradientUnits="userSpaceOnUse">
<stop stop-color="#F4C033"/>
<stop offset="1" stop-color="white"/>
</linearGradient>
<linearGradient id="paint46_linear" x1="642.783" y1="294.017" x2="642.934" y2="293.037" gradientUnits="userSpaceOnUse">
<stop stop-color="#F4C033"/>
<stop offset="1" stop-color="white"/>
</linearGradient>
<linearGradient id="paint47_linear" x1="645.548" y1="294.645" x2="644.926" y2="293.23" gradientUnits="userSpaceOnUse">
<stop stop-color="#F4C033"/>
<stop offset="1" stop-color="white"/>
</linearGradient>
<linearGradient id="paint48_linear" x1="627.116" y1="294.906" x2="627.476" y2="292.036" gradientUnits="userSpaceOnUse">
<stop offset="0.340386" stop-color="#F4C033"/>
<stop offset="1" stop-color="white"/>
</linearGradient>
<linearGradient id="paint49_linear" x1="639.91" y1="295.723" x2="640.099" y2="294.297" gradientUnits="userSpaceOnUse">
<stop stop-color="#F4C033"/>
<stop offset="1" stop-color="white"/>
</linearGradient>
<linearGradient id="paint50_linear" x1="642.819" y1="296.037" x2="642.403" y2="294.579" gradientUnits="userSpaceOnUse">
<stop stop-color="#F4C033"/>
<stop offset="1" stop-color="white"/>
</linearGradient>
<linearGradient id="paint51_linear" x1="634.243" y1="296.922" x2="634.5" y2="294.91" gradientUnits="userSpaceOnUse">
<stop offset="0.167713" stop-color="#F4C033"/>
<stop offset="1" stop-color="white"/>
</linearGradient>
<linearGradient id="paint52_linear" x1="636.71" y1="296.67" x2="636.013" y2="295.052" gradientUnits="userSpaceOnUse">
<stop stop-color="#F4C133"/>
<stop offset="1" stop-color="white"/>
</linearGradient>
<radialGradient id="paint53_radial" cx="0" cy="0" r="1" gradientUnits="userSpaceOnUse" gradientTransform="translate(603.691 284.613) rotate(-64.0076) scale(10.3163 19.4836)">
<stop stop-color="#FFCA39"/>
<stop offset="1" stop-color="#E1A807"/>
</radialGradient>
<linearGradient id="paint54_linear" x1="604.67" y1="290.131" x2="623.848" y2="314.593" gradientUnits="userSpaceOnUse">
<stop stop-color="#FFDF86"/>
<stop offset="0.546717" stop-color="#FFCA39"/>
<stop offset="1" stop-color="#DBA512"/>
</linearGradient>
<linearGradient id="paint55_linear" x1="620.153" y1="278.806" x2="620.704" y2="276.831" gradientUnits="userSpaceOnUse">
<stop offset="0.543659" stop-color="#F4C033"/>
<stop offset="1" stop-color="white"/>
</linearGradient>
<linearGradient id="paint56_linear" x1="633.199" y1="278.561" x2="633.134" y2="278.556" gradientUnits="userSpaceOnUse">
<stop stop-color="#F4C033"/>
<stop offset="1" stop-color="white"/>
</linearGradient>
<linearGradient id="paint57_linear" x1="626.426" y1="278.731" x2="626.312" y2="277.008" gradientUnits="userSpaceOnUse">
<stop stop-color="#F4C033"/>
<stop offset="1" stop-color="white"/>
</linearGradient>
<linearGradient id="paint58_linear" x1="617.192" y1="279.617" x2="617.477" y2="278.008" gradientUnits="userSpaceOnUse">
<stop stop-color="#F4C033"/>
<stop offset="1" stop-color="white"/>
</linearGradient>
<linearGradient id="paint59_linear" x1="633.564" y1="279.934" x2="633.166" y2="278.159" gradientUnits="userSpaceOnUse">
<stop stop-color="#F4C033"/>
<stop offset="1" stop-color="white"/>
</linearGradient>
<linearGradient id="paint60_linear" x1="617.375" y1="282.072" x2="617.734" y2="280.269" gradientUnits="userSpaceOnUse">
<stop offset="0.111255" stop-color="#F4C033"/>
<stop offset="1" stop-color="white"/>
</linearGradient>
<linearGradient id="paint61_linear" x1="640.865" y1="280.788" x2="640.023" y2="279.491" gradientUnits="userSpaceOnUse">
<stop stop-color="#F4C033"/>
<stop offset="1" stop-color="white"/>
</linearGradient>
<linearGradient id="paint62_linear" x1="637.377" y1="281.785" x2="637.038" y2="281.069" gradientUnits="userSpaceOnUse">
<stop stop-color="#F4C033"/>
<stop offset="1" stop-color="white"/>
</linearGradient>
<linearGradient id="paint63_linear" x1="639.13" y1="282.158" x2="639.282" y2="281.177" gradientUnits="userSpaceOnUse">
<stop stop-color="#F4C033"/>
<stop offset="1" stop-color="white"/>
</linearGradient>
<linearGradient id="paint64_linear" x1="641.895" y1="282.786" x2="641.273" y2="281.371" gradientUnits="userSpaceOnUse">
<stop stop-color="#F4C033"/>
<stop offset="1" stop-color="white"/>
</linearGradient>
<linearGradient id="paint65_linear" x1="623.462" y1="283.047" x2="623.823" y2="280.177" gradientUnits="userSpaceOnUse">
<stop offset="0.340386" stop-color="#F4C033"/>
<stop offset="1" stop-color="white"/>
</linearGradient>
<linearGradient id="paint66_linear" x1="636.257" y1="283.863" x2="636.447" y2="282.438" gradientUnits="userSpaceOnUse">
<stop stop-color="#F4C033"/>
<stop offset="1" stop-color="white"/>
</linearGradient>
<linearGradient id="paint67_linear" x1="639.166" y1="284.177" x2="638.75" y2="282.719" gradientUnits="userSpaceOnUse">
<stop stop-color="#F4C033"/>
<stop offset="1" stop-color="white"/>
</linearGradient>
<linearGradient id="paint68_linear" x1="630.59" y1="285.063" x2="630.848" y2="283.05" gradientUnits="userSpaceOnUse">
<stop offset="0.167713" stop-color="#F4C033"/>
<stop offset="1" stop-color="white"/>
</linearGradient>
<linearGradient id="paint69_linear" x1="633.058" y1="284.811" x2="632.36" y2="283.193" gradientUnits="userSpaceOnUse">
<stop stop-color="#F4C133"/>
<stop offset="1" stop-color="white"/>
</linearGradient>
<linearGradient id="paint70_linear" x1="606.974" y1="276.297" x2="625.278" y2="301.158" gradientUnits="userSpaceOnUse">
<stop stop-color="#FFDF86"/>
<stop offset="0.546717" stop-color="#FFCA39"/>
<stop offset="0.890625" stop-color="#EABA35"/>
<stop offset="1" stop-color="#EFB925"/>
</linearGradient>
<linearGradient id="paint71_linear" x1="621.98" y1="266.318" x2="622.531" y2="264.343" gradientUnits="userSpaceOnUse">
<stop offset="0.543659" stop-color="#F4C033"/>
<stop offset="1" stop-color="white"/>
</linearGradient>
<linearGradient id="paint72_linear" x1="635.025" y1="266.076" x2="634.96" y2="266.072" gradientUnits="userSpaceOnUse">
<stop stop-color="#F4C033"/>
<stop offset="1" stop-color="white"/>
</linearGradient>
<linearGradient id="paint73_linear" x1="628.252" y1="266.243" x2="628.138" y2="264.52" gradientUnits="userSpaceOnUse">
<stop stop-color="#F4C033"/>
<stop offset="1" stop-color="white"/>
</linearGradient>
<linearGradient id="paint74_linear" x1="619.018" y1="267.137" x2="619.302" y2="265.528" gradientUnits="userSpaceOnUse">
<stop stop-color="#F4C033"/>
<stop offset="1" stop-color="white"/>
</linearGradient>
<linearGradient id="paint75_linear" x1="635.39" y1="267.45" x2="634.992" y2="265.675" gradientUnits="userSpaceOnUse">
<stop stop-color="#F4C033"/>
<stop offset="1" stop-color="white"/>
</linearGradient>
<linearGradient id="paint76_linear" x1="619.201" y1="269.587" x2="619.559" y2="267.785" gradientUnits="userSpaceOnUse">
<stop offset="0.111255" stop-color="#F4C033"/>
<stop offset="1" stop-color="white"/>
</linearGradient>
<linearGradient id="paint77_linear" x1="642.691" y1="268.303" x2="641.848" y2="267.007" gradientUnits="userSpaceOnUse">
<stop stop-color="#F4C033"/>
<stop offset="1" stop-color="white"/>
</linearGradient>
<linearGradient id="paint78_linear" x1="639.204" y1="269.301" x2="638.865" y2="268.585" gradientUnits="userSpaceOnUse">
<stop stop-color="#F4C033"/>
<stop offset="1" stop-color="white"/>
</linearGradient>
<linearGradient id="paint79_linear" x1="640.956" y1="269.674" x2="641.107" y2="268.693" gradientUnits="userSpaceOnUse">
<stop stop-color="#F4C033"/>
<stop offset="1" stop-color="white"/>
</linearGradient>
<linearGradient id="paint80_linear" x1="643.722" y1="270.301" x2="643.1" y2="268.886" gradientUnits="userSpaceOnUse">
<stop stop-color="#F4C033"/>
<stop offset="1" stop-color="white"/>
</linearGradient>
<linearGradient id="paint81_linear" x1="625.289" y1="270.562" x2="625.65" y2="267.692" gradientUnits="userSpaceOnUse">
<stop offset="0.340386" stop-color="#F4C033"/>
<stop offset="1" stop-color="white"/>
</linearGradient>
<linearGradient id="paint82_linear" x1="638.082" y1="271.379" x2="638.272" y2="269.954" gradientUnits="userSpaceOnUse">
<stop stop-color="#F4C033"/>
<stop offset="1" stop-color="white"/>
</linearGradient>
<linearGradient id="paint83_linear" x1="640.992" y1="271.693" x2="640.576" y2="270.235" gradientUnits="userSpaceOnUse">
<stop stop-color="#F4C033"/>
<stop offset="1" stop-color="white"/>
</linearGradient>
<linearGradient id="paint84_linear" x1="632.416" y1="272.578" x2="632.674" y2="270.566" gradientUnits="userSpaceOnUse">
<stop offset="0.167713" stop-color="#F4C033"/>
<stop offset="1" stop-color="white"/>
</linearGradient>
<linearGradient id="paint85_linear" x1="634.884" y1="272.322" x2="634.186" y2="270.704" gradientUnits="userSpaceOnUse">
<stop stop-color="#F4C133"/>
<stop offset="1" stop-color="white"/>
</linearGradient>
<clipPath id="clip0">
<rect x="281.177" y="415.16" width="25.2793" height="9.19965" fill="white"/>
</clipPath>
<clipPath id="clip1">
<rect x="283.367" y="415" width="25.2793" height="9.19965" fill="white"/>
</clipPath>
</defs>
</svg>
