<svg width="181" height="144" viewBox="0 0 181 144" fill="none" xmlns="http://www.w3.org/2000/svg">
    <circle cx="124.299" cy="60.2989" r="56.2989" fill="#F6F5FF" />
    <circle cx="11.6172" cy="24.6172" r="11.6172" fill="#F6F5FF" />
    <path
        d="M97.4231 47.9961V23.9965C97.4231 13.5494 87.9387 5 76.3466 5C64.7545 5 55.2701 13.5494 55.2701 23.9965V47.9961"
        stroke="#FFCBC1" stroke-width="8.43061" stroke-miterlimit="10" stroke-linecap="round" stroke-linejoin="round" />
    <g filter="url(#filter0_d)">
        <path
            d="M76.2373 129.274C102.086 129.274 123.04 108.32 123.04 82.4714C123.04 56.6231 102.086 35.6689 76.2373 35.6689C50.3891 35.6689 29.4349 56.6231 29.4349 82.4714C29.4349 108.32 50.3891 129.274 76.2373 129.274Z"
            fill="white" />
    </g>
    <path opacity="0.05"
        d="M37.6916 120.875C16.7695 99.9524 16.7695 66.028 37.6916 45.106L113.46 120.875C92.538 141.797 58.6137 141.797 37.6916 120.875Z"
        fill="#FF512F" />
    <g filter="url(#filter1_d)">
        <path
            d="M76.0912 95.9009C72.4096 95.9009 69.3975 92.8887 69.3975 89.2072V75.8197C69.3975 72.1382 72.4096 69.126 76.0912 69.126C79.7727 69.126 82.7849 72.1382 82.7849 75.8197V89.2072C82.7849 92.8887 79.7727 95.9009 76.0912 95.9009Z"
            fill="#FF512F" />
    </g>
    <defs>
        <filter id="filter0_d" x="19.2298" y="28.0152" width="115.716" height="115.716" filterUnits="userSpaceOnUse"
            color-interpolation-filters="sRGB">
            <feFlood flood-opacity="0" result="BackgroundImageFix" />
            <feColorMatrix in="SourceAlpha" type="matrix" values="0 0 0 0 0 0 0 0 0 0 0 0 0 0 0 0 0 0 127 0" />
            <feOffset dx="0.85042" dy="3.40168" />
            <feGaussianBlur stdDeviation="5.52773" />
            <feColorMatrix type="matrix" values="0 0 0 0 1 0 0 0 0 0.317647 0 0 0 0 0.184314 0 0 0 0.26 0" />
            <feBlend mode="normal" in2="BackgroundImageFix" result="effect1_dropShadow" />
            <feBlend mode="normal" in="SourceGraphic" in2="effect1_dropShadow" result="shape" />
        </filter>
        <filter id="filter1_d" x="69.3975" y="69.126" width="29.5454" height="45.4842" filterUnits="userSpaceOnUse"
            color-interpolation-filters="sRGB">
            <feFlood flood-opacity="0" result="BackgroundImageFix" />
            <feColorMatrix in="SourceAlpha" type="matrix" values="0 0 0 0 0 0 0 0 0 0 0 0 0 0 0 0 0 0 127 0" />
            <feOffset dx="8.5042" dy="11.0555" />
            <feGaussianBlur stdDeviation="3.82689" />
            <feColorMatrix type="matrix" values="0 0 0 0 1 0 0 0 0 0.317647 0 0 0 0 0.184314 0 0 0 0.22 0" />
            <feBlend mode="normal" in2="BackgroundImageFix" result="effect1_dropShadow" />
            <feBlend mode="normal" in="SourceGraphic" in2="effect1_dropShadow" result="shape" />
        </filter>
    </defs>
</svg>