<svg width="878" height="710" viewBox="0 0 878 710" fill="none" xmlns="http://www.w3.org/2000/svg">
<ellipse cx="278.907" cy="59.6641" rx="4.99698" ry="5" fill="#F6F5FF"/>
<ellipse cx="344.867" cy="59.6641" rx="4.99698" ry="5" fill="#F6F5FF"/>
<ellipse cx="410.827" cy="59.6641" rx="4.99698" ry="5" fill="#F6F5FF"/>
<ellipse cx="476.787" cy="59.6641" rx="4.99698" ry="5" fill="#F6F5FF"/>
<ellipse cx="542.748" cy="59.6641" rx="4.99698" ry="5" fill="#F6F5FF"/>
<ellipse cx="608.708" cy="59.6641" rx="4.99698" ry="5" fill="#F6F5FF"/>
<ellipse cx="674.668" cy="59.6641" rx="4.99698" ry="5" fill="#F6F5FF"/>
<ellipse cx="740.628" cy="59.6641" rx="4.99698" ry="5" fill="#F6F5FF"/>
<ellipse cx="806.588" cy="59.6641" rx="4.99698" ry="5" fill="#F6F5FF"/>
<ellipse cx="872.548" cy="59.6641" rx="4.99698" ry="5" fill="#F6F5FF"/>
<ellipse cx="278.907" cy="123.664" rx="4.99698" ry="5" fill="#F6F5FF"/>
<ellipse cx="344.867" cy="123.664" rx="4.99698" ry="5" fill="#F6F5FF"/>
<ellipse cx="410.827" cy="123.664" rx="4.99698" ry="5" fill="#F6F5FF"/>
<ellipse cx="476.787" cy="123.664" rx="4.99698" ry="5" fill="#F6F5FF"/>
<ellipse cx="542.748" cy="123.664" rx="4.99698" ry="5" fill="#F6F5FF"/>
<ellipse cx="608.708" cy="123.664" rx="4.99698" ry="5" fill="#F6F5FF"/>
<ellipse cx="674.668" cy="123.664" rx="4.99698" ry="5" fill="#F6F5FF"/>
<ellipse cx="740.628" cy="123.664" rx="4.99698" ry="5" fill="#F6F5FF"/>
<ellipse cx="806.588" cy="123.664" rx="4.99698" ry="5" fill="#F6F5FF"/>
<ellipse cx="872.548" cy="123.664" rx="4.99698" ry="5" fill="#F6F5FF"/>
<ellipse cx="278.907" cy="187.664" rx="4.99698" ry="5" fill="#F6F5FF"/>
<ellipse cx="344.867" cy="187.664" rx="4.99698" ry="5" fill="#F6F5FF"/>
<ellipse cx="410.827" cy="187.664" rx="4.99698" ry="5" fill="#F6F5FF"/>
<ellipse cx="476.787" cy="187.664" rx="4.99698" ry="5" fill="#F6F5FF"/>
<ellipse cx="542.748" cy="187.664" rx="4.99698" ry="5" fill="#F6F5FF"/>
<ellipse cx="608.708" cy="187.664" rx="4.99698" ry="5" fill="#F6F5FF"/>
<ellipse cx="674.668" cy="187.664" rx="4.99698" ry="5" fill="#F6F5FF"/>
<ellipse cx="740.628" cy="187.664" rx="4.99698" ry="5" fill="#F6F5FF"/>
<ellipse cx="806.588" cy="187.664" rx="4.99698" ry="5" fill="#F6F5FF"/>
<ellipse cx="872.548" cy="187.664" rx="4.99698" ry="5" fill="#F6F5FF"/>
<ellipse cx="278.907" cy="251.664" rx="4.99698" ry="5" fill="#F6F5FF"/>
<ellipse cx="344.867" cy="251.664" rx="4.99698" ry="5" fill="#F6F5FF"/>
<ellipse cx="410.827" cy="251.664" rx="4.99698" ry="5" fill="#F6F5FF"/>
<ellipse cx="476.787" cy="251.664" rx="4.99698" ry="5" fill="#F6F5FF"/>
<ellipse cx="542.748" cy="251.664" rx="4.99698" ry="5" fill="#F6F5FF"/>
<ellipse cx="608.708" cy="251.664" rx="4.99698" ry="5" fill="#F6F5FF"/>
<ellipse cx="674.668" cy="251.664" rx="4.99698" ry="5" fill="#F6F5FF"/>
<ellipse cx="740.628" cy="251.664" rx="4.99698" ry="5" fill="#F6F5FF"/>
<ellipse cx="806.588" cy="251.664" rx="4.99698" ry="5" fill="#F6F5FF"/>
<ellipse cx="872.548" cy="251.664" rx="4.99698" ry="5" fill="#F6F5FF"/>
<ellipse cx="278.907" cy="315.664" rx="4.99698" ry="5" fill="#F6F5FF"/>
<ellipse cx="344.867" cy="315.664" rx="4.99698" ry="5" fill="#F6F5FF"/>
<ellipse cx="410.827" cy="315.664" rx="4.99698" ry="5" fill="#F6F5FF"/>
<ellipse cx="476.787" cy="315.664" rx="4.99698" ry="5" fill="#F6F5FF"/>
<ellipse cx="542.748" cy="315.664" rx="4.99698" ry="5" fill="#F6F5FF"/>
<ellipse cx="608.708" cy="315.664" rx="4.99698" ry="5" fill="#F6F5FF"/>
<ellipse cx="674.668" cy="315.664" rx="4.99698" ry="5" fill="#F6F5FF"/>
<ellipse cx="740.628" cy="315.664" rx="4.99698" ry="5" fill="#F6F5FF"/>
<ellipse cx="806.588" cy="315.664" rx="4.99698" ry="5" fill="#F6F5FF"/>
<ellipse cx="872.548" cy="315.664" rx="4.99698" ry="5" fill="#F6F5FF"/>
<ellipse cx="278.907" cy="379.664" rx="4.99698" ry="5" fill="#F6F5FF"/>
<ellipse cx="344.867" cy="379.664" rx="4.99698" ry="5" fill="#F6F5FF"/>
<ellipse cx="410.827" cy="379.664" rx="4.99698" ry="5" fill="#F6F5FF"/>
<ellipse cx="476.787" cy="379.664" rx="4.99698" ry="5" fill="#F6F5FF"/>
<ellipse cx="542.748" cy="379.664" rx="4.99698" ry="5" fill="#F6F5FF"/>
<ellipse cx="608.708" cy="379.664" rx="4.99698" ry="5" fill="#F6F5FF"/>
<ellipse cx="674.668" cy="379.664" rx="4.99698" ry="5" fill="#F6F5FF"/>
<ellipse cx="740.628" cy="379.664" rx="4.99698" ry="5" fill="#F6F5FF"/>
<ellipse cx="806.588" cy="379.664" rx="4.99698" ry="5" fill="#F6F5FF"/>
<ellipse cx="872.548" cy="379.664" rx="4.99698" ry="5" fill="#F6F5FF"/>
<ellipse cx="278.907" cy="443.664" rx="4.99698" ry="5" fill="#F6F5FF"/>
<ellipse cx="344.867" cy="443.664" rx="4.99698" ry="5" fill="#F6F5FF"/>
<ellipse cx="410.827" cy="443.664" rx="4.99698" ry="5" fill="#F6F5FF"/>
<ellipse cx="476.787" cy="443.664" rx="4.99698" ry="5" fill="#F6F5FF"/>
<ellipse cx="542.748" cy="443.664" rx="4.99698" ry="5" fill="#F6F5FF"/>
<ellipse cx="608.708" cy="443.664" rx="4.99698" ry="5" fill="#F6F5FF"/>
<ellipse cx="674.668" cy="443.664" rx="4.99698" ry="5" fill="#F6F5FF"/>
<ellipse cx="740.628" cy="443.664" rx="4.99698" ry="5" fill="#F6F5FF"/>
<ellipse cx="806.588" cy="443.664" rx="4.99698" ry="5" fill="#F6F5FF"/>
<ellipse cx="872.548" cy="443.664" rx="4.99698" ry="5" fill="#F6F5FF"/>
<ellipse cx="278.907" cy="507.664" rx="4.99698" ry="5" fill="#F6F5FF"/>
<ellipse cx="344.867" cy="507.664" rx="4.99698" ry="5" fill="#F6F5FF"/>
<ellipse cx="410.827" cy="507.664" rx="4.99698" ry="5" fill="#F6F5FF"/>
<ellipse cx="476.787" cy="507.664" rx="4.99698" ry="5" fill="#F6F5FF"/>
<ellipse cx="542.748" cy="507.664" rx="4.99698" ry="5" fill="#F6F5FF"/>
<ellipse cx="608.708" cy="507.664" rx="4.99698" ry="5" fill="#F6F5FF"/>
<ellipse cx="674.668" cy="507.664" rx="4.99698" ry="5" fill="#F6F5FF"/>
<ellipse cx="740.628" cy="507.664" rx="4.99698" ry="5" fill="#F6F5FF"/>
<ellipse cx="806.588" cy="507.664" rx="4.99698" ry="5" fill="#F6F5FF"/>
<ellipse cx="872.548" cy="507.664" rx="4.99698" ry="5" fill="#F6F5FF"/>
<ellipse cx="278.907" cy="571.664" rx="4.99698" ry="5" fill="#F6F5FF"/>
<ellipse cx="344.867" cy="571.664" rx="4.99698" ry="5" fill="#F6F5FF"/>
<ellipse cx="410.827" cy="571.664" rx="4.99698" ry="5" fill="#F6F5FF"/>
<ellipse cx="476.787" cy="571.664" rx="4.99698" ry="5" fill="#F6F5FF"/>
<ellipse cx="542.748" cy="571.664" rx="4.99698" ry="5" fill="#F6F5FF"/>
<ellipse cx="608.708" cy="571.664" rx="4.99698" ry="5" fill="#F6F5FF"/>
<ellipse cx="674.668" cy="571.664" rx="4.99698" ry="5" fill="#F6F5FF"/>
<ellipse cx="740.628" cy="571.664" rx="4.99698" ry="5" fill="#F6F5FF"/>
<ellipse cx="806.588" cy="571.664" rx="4.99698" ry="5" fill="#F6F5FF"/>
<ellipse cx="872.548" cy="571.664" rx="4.99698" ry="5" fill="#F6F5FF"/>
<ellipse cx="278.907" cy="635.664" rx="4.99698" ry="5" fill="#F6F5FF"/>
<ellipse cx="344.867" cy="635.664" rx="4.99698" ry="5" fill="#F6F5FF"/>
<ellipse cx="410.827" cy="635.664" rx="4.99698" ry="5" fill="#F6F5FF"/>
<ellipse cx="476.787" cy="635.664" rx="4.99698" ry="5" fill="#F6F5FF"/>
<ellipse cx="542.748" cy="635.664" rx="4.99698" ry="5" fill="#F6F5FF"/>
<ellipse cx="608.708" cy="635.664" rx="4.99698" ry="5" fill="#F6F5FF"/>
<ellipse cx="674.668" cy="635.664" rx="4.99698" ry="5" fill="#F6F5FF"/>
<ellipse cx="740.628" cy="635.664" rx="4.99698" ry="5" fill="#F6F5FF"/>
<ellipse cx="806.588" cy="635.664" rx="4.99698" ry="5" fill="#F6F5FF"/>
<ellipse cx="872.548" cy="635.664" rx="4.99698" ry="5" fill="#F6F5FF"/>
<path d="M211.038 326.572L209.753 328.758L209.98 328.991L210.882 327.435L210.876 330.606L211.193 330.495L211.2 327.318L212.095 328.258L212.323 327.876L211.038 326.572Z" fill="white"/>
<path d="M215.009 325.127L214.704 325.231L213.88 326.56L214.081 326.806L214.665 325.95L214.659 329.543L214.996 329.42L215.009 325.127Z" fill="white"/>
<path d="M216.729 324.492C216.413 324.628 216.142 324.851 215.949 325.136C215.755 325.421 215.648 325.756 215.639 326.1L215.976 326.048C215.979 325.807 216.052 325.573 216.185 325.372C216.319 325.172 216.508 325.015 216.729 324.92C217.112 324.783 217.378 325.023 217.378 325.49C217.335 325.947 217.156 326.38 216.865 326.735L215.567 328.849V329.225L217.702 328.486V328.045L216.093 328.596L217.177 326.852C217.497 326.419 217.686 325.904 217.722 325.367C217.722 324.641 217.293 324.291 216.716 324.492" fill="white"/>
<path d="M221.205 326.923C220.939 327.014 220.745 326.826 220.751 326.456C220.742 326.295 220.781 326.134 220.863 325.995C220.945 325.855 221.066 325.743 221.212 325.672C221.478 325.581 221.672 325.775 221.672 326.138C221.683 326.301 221.645 326.463 221.561 326.603C221.478 326.744 221.354 326.855 221.205 326.923ZM221.205 325.25C220.963 325.367 220.761 325.552 220.624 325.783C220.487 326.013 220.42 326.279 220.433 326.547C220.433 327.157 220.758 327.487 221.199 327.332C221.442 327.216 221.645 327.031 221.782 326.8C221.92 326.57 221.985 326.303 221.971 326.035C221.971 325.432 221.653 325.101 221.205 325.257V325.25ZM221.205 323L220.855 323.123L218.973 328.058L219.33 327.935L221.205 323ZM218.986 325.38C218.72 325.471 218.525 325.276 218.525 324.913C218.516 324.75 218.555 324.587 218.638 324.446C218.722 324.305 218.845 324.192 218.993 324.122C219.259 324.031 219.453 324.219 219.453 324.595C219.462 324.758 219.423 324.919 219.34 325.059C219.256 325.199 219.133 325.31 218.986 325.38ZM218.986 323.707C218.743 323.822 218.54 324.007 218.403 324.238C218.265 324.469 218.199 324.735 218.214 325.004C218.214 325.607 218.538 325.937 218.98 325.782C219.221 325.665 219.423 325.48 219.561 325.249C219.698 325.019 219.764 324.753 219.752 324.485C219.752 323.875 219.434 323.545 218.986 323.7" fill="white"/>
<path d="M183.168 336.156L182 338.102L182.208 338.309L183.025 336.921L183.006 339.781L183.291 339.69L183.311 336.824L184.115 337.693L184.317 337.349L183.168 336.156Z" fill="white"/>
<path d="M186.73 336.979C186.361 337.096 186.082 336.823 186.082 336.33C186.068 336.107 186.122 335.885 186.238 335.694C186.354 335.503 186.526 335.351 186.73 335.26C187.1 335.144 187.379 335.416 187.379 335.909C187.392 336.132 187.336 336.353 187.22 336.544C187.105 336.735 186.934 336.886 186.73 336.979ZM186.73 334.865C186.439 334.999 186.193 335.216 186.026 335.49C185.858 335.764 185.776 336.081 185.79 336.402C185.79 337.134 186.205 337.511 186.692 337.348C186.791 337.314 186.881 337.258 186.958 337.186L186.211 338.937L186.588 338.814L187.509 336.616C187.618 336.355 187.675 336.075 187.678 335.792C187.678 335.072 187.289 334.67 186.75 334.845" fill="white"/>
<path d="M188.281 337.662C188.204 337.699 188.139 337.758 188.095 337.832C188.051 337.906 188.03 337.991 188.035 338.077C188.035 338.284 188.139 338.381 188.281 338.336C188.361 338.3 188.428 338.24 188.473 338.165C188.518 338.089 188.54 338.002 188.534 337.915C188.534 337.714 188.437 337.61 188.281 337.662Z" fill="white"/>
<path d="M190.208 337.324C189.832 337.447 189.559 337.259 189.559 336.812C189.551 336.605 189.61 336.402 189.727 336.231C189.844 336.06 190.013 335.932 190.208 335.865C190.598 335.742 190.857 335.95 190.857 336.397C190.865 336.601 190.805 336.802 190.688 336.969C190.571 337.136 190.403 337.261 190.208 337.324ZM190.208 335.496C189.851 335.612 189.624 335.411 189.624 334.99C189.62 334.802 189.676 334.617 189.783 334.462C189.89 334.307 190.044 334.19 190.221 334.127C190.578 334.011 190.812 334.199 190.812 334.607C190.819 334.8 190.764 334.99 190.656 335.15C190.547 335.31 190.39 335.431 190.208 335.496ZM190.208 333.745C189.936 333.849 189.703 334.034 189.541 334.276C189.378 334.517 189.294 334.803 189.3 335.094C189.3 335.522 189.449 335.774 189.715 335.833C189.559 335.968 189.435 336.137 189.352 336.327C189.268 336.516 189.229 336.722 189.235 336.929C189.235 337.577 189.631 337.888 190.182 337.707C190.469 337.602 190.716 337.411 190.89 337.16C191.064 336.909 191.157 336.611 191.156 336.306C191.156 335.833 190.987 335.573 190.676 335.522C190.817 335.395 190.928 335.238 191.002 335.063C191.076 334.889 191.111 334.7 191.104 334.51C191.104 333.862 190.734 333.576 190.208 333.745Z" fill="white"/>
<path d="M194.413 335.962C194.173 336.04 193.998 335.864 193.998 335.534C193.993 335.388 194.031 335.244 194.107 335.119C194.183 334.995 194.294 334.896 194.426 334.833C194.666 334.756 194.842 334.937 194.835 335.261C194.844 335.407 194.809 335.552 194.733 335.677C194.658 335.802 194.546 335.902 194.413 335.962ZM194.413 334.457C194.192 334.559 194.007 334.724 193.882 334.933C193.757 335.141 193.698 335.382 193.712 335.625C193.712 336.169 193.998 336.474 194.4 336.344C194.621 336.241 194.806 336.074 194.931 335.865C195.056 335.656 195.115 335.414 195.101 335.171C195.101 334.626 194.816 334.328 194.413 334.457ZM194.413 332.428L194.095 332.525L192.382 336.947L192.7 336.844L194.413 332.428ZM192.395 334.529C192.155 334.606 191.98 334.425 191.98 334.101C191.974 333.954 192.011 333.808 192.087 333.683C192.163 333.557 192.275 333.456 192.408 333.394C192.648 333.316 192.823 333.498 192.817 333.828C192.825 333.974 192.789 334.119 192.714 334.243C192.639 334.368 192.528 334.468 192.395 334.529ZM192.395 333.018C192.174 333.121 191.99 333.288 191.865 333.497C191.74 333.706 191.68 333.948 191.694 334.191C191.694 334.736 191.98 335.034 192.382 334.905C192.603 334.803 192.788 334.638 192.913 334.429C193.038 334.221 193.097 333.98 193.083 333.738C193.083 333.193 192.797 332.888 192.395 333.018Z" fill="white"/>
<circle cx="556.763" cy="410" r="300" fill="#F6F5FF"/>
<g filter="url(#filter0_d)">
<ellipse cx="585.543" cy="44.2111" rx="7.54252" ry="7.54708" fill="#9421EE"/>
</g>
<g filter="url(#filter1_d)">
<ellipse cx="55.5425" cy="561.547" rx="7.54252" ry="7.54708" fill="#9421EE"/>
</g>
<g filter="url(#filter2_d)">
<ellipse cx="692.543" cy="379.211" rx="7.54252" ry="7.54708" fill="#9421EE"/>
</g>
<g filter="url(#filter3_d)">
<ellipse cx="341.822" cy="325" rx="293.822" ry="294" fill="#9421EE"/>
</g>
<g clip-path="url(#clip0)">
<path d="M193.266 250.699L193.02 513.215L165.613 518.5L165.859 256.107L193.266 250.699Z" fill="#B251FF"/>
<path d="M187.121 174.869C190.562 174.254 193.266 177.449 193.266 182.12L193.143 250.698L165.859 256.106L165.613 518.499L193.02 513.214L165.613 518.499L165.982 187.404C165.982 182.734 168.809 178.433 172.127 177.818L187.121 174.869Z" fill="#A13DF0"/>
<path d="M236.527 211.002L236.158 504.735L208.874 510.142L209.243 216.41L236.527 211.002Z" fill="#B251FF"/>
<path d="M230.259 166.464C233.701 165.85 236.404 169.045 236.404 173.715V211.077L208.998 216.362L208.629 510.095L236.036 504.81L208.629 510.095L208.998 179C208.998 174.33 211.824 170.028 215.143 169.414L230.259 166.464Z" fill="#A13DF0"/>
<path d="M279.666 253.156L279.42 496.377L252.136 501.662L252.382 258.564L279.666 253.156Z" fill="#B251FF"/>
<path d="M273.643 158.154C277.085 157.539 279.788 160.735 279.788 165.405L279.666 253.279L252.382 258.564L252.136 501.784L279.543 496.5L252.136 501.784L252.504 170.69C252.504 166.019 255.331 161.718 258.649 161.103L273.643 158.154Z" fill="#A13DF0"/>
<path d="M323.049 178.557L322.68 488.021L295.273 493.305L295.642 183.964L323.049 178.557Z" fill="#B251FF"/>
<path d="M316.904 149.675C320.345 149.061 323.049 152.256 323.049 156.926V178.557L295.642 183.842L295.273 493.306L322.68 488.021L295.273 493.306L295.642 162.211C295.642 157.541 298.469 153.239 301.787 152.625L316.904 149.675Z" fill="#A13DF0"/>
<path d="M366.187 203.873L365.941 479.539L338.534 484.824L338.903 209.158L366.187 203.873Z" fill="#B251FF"/>
<path d="M360.165 141.318C363.606 140.703 366.31 143.899 366.31 148.569L366.187 203.997L338.903 209.159L338.534 484.825L365.941 479.541L338.534 484.825L338.903 153.854C338.903 149.183 341.73 144.882 345.048 144.267L360.165 141.318Z" fill="#A13DF0"/>
<path d="M409.449 153.361L409.08 471.183L381.796 476.467L382.165 158.646L409.449 153.361Z" fill="#B251FF"/>
<path d="M403.303 132.837C406.745 132.223 409.448 135.418 409.448 140.088V153.362L382.042 158.646L381.673 476.468L409.08 471.183L381.673 476.468L382.164 145.496C382.164 140.826 384.991 136.524 388.309 135.91L403.303 132.837Z" fill="#A13DF0"/>
<path d="M452.709 187.037L452.341 462.704L425.057 468.111L425.302 192.445L452.709 187.037Z" fill="#B251FF"/>
<path d="M446.564 124.48C450.005 123.865 452.709 127.061 452.709 131.731L452.586 187.159L425.179 192.444L424.811 468.11L452.217 462.826L424.811 468.11L425.179 137.016C425.179 132.346 428.006 128.044 431.324 127.43L446.564 124.48Z" fill="#A13DF0"/>
<path d="M495.971 136.523L495.602 454.345L468.195 459.63L468.564 141.931L495.971 136.523Z" fill="#B251FF"/>
<path d="M489.826 116.122C493.267 115.508 495.971 118.703 495.971 123.374V136.647L468.564 141.932L468.195 459.753L495.602 454.468L468.195 459.753L468.564 128.658C468.564 123.988 471.391 119.687 474.709 119.072L489.826 116.122Z" fill="#A13DF0"/>
</g>
<g opacity="0.4" filter="url(#filter4_f)">
<ellipse cx="460.584" cy="262.242" rx="35.6289" ry="6.58759" fill="#8392CD"/>
</g>
<g opacity="0.43" filter="url(#filter5_f)">
<path d="M629.276 538.748C635.635 537.611 634.207 533.849 626.127 530.371L603.702 520.71L492.506 472.904L231.686 519.835L254.11 529.497C262.191 532.975 273.897 534.88 280.248 533.705L333.947 524.051L356.372 533.712C364.452 537.191 376.158 539.095 382.509 537.921L436.208 528.267L458.633 537.928C466.713 541.407 478.419 543.311 484.771 542.137L538.469 532.483L560.894 542.144C568.974 545.622 580.68 547.527 587.032 546.353L629.276 538.748Z" fill="#13163D"/>
</g>
<g opacity="0.39" filter="url(#filter6_f)">
<path d="M251.461 534.039L170.91 518.164L451.911 458.164L522.466 479.919L251.461 534.039Z" fill="#101239"/>
</g>
<path d="M509.739 259.058C511.422 258.722 512.769 260.321 512.769 262.592L512.684 331.842L512.6 405.214L512.516 478.586L427.364 495.162L342.212 511.738L258.938 527.768L257.956 527.339L257.06 458.897C257.06 456.625 258.406 454.521 260.089 454.185L342.212 438.198L342.296 368.949C342.296 366.677 343.642 364.573 345.325 364.237L427.448 348.249L427.532 279C427.532 276.728 428.879 274.625 430.561 274.288L509.739 259.058Z" fill="url(#paint0_linear)"/>
<path fill-rule="evenodd" clip-rule="evenodd" d="M362.909 259.704L362.867 259.695L442.045 244.297L510.585 259.013L432.621 274.252C430.939 274.588 429.592 276.692 429.592 278.964L429.508 348.213L359.754 333.656L359.838 264.407L429.221 278.886L359.922 264.407C359.922 262.154 361.246 260.067 362.909 259.704ZM277.673 349.652L277.631 349.643L359.754 333.656L429.508 348.213L347.385 364.2C345.702 364.536 344.356 366.64 344.356 368.912L344.272 438.161L274.518 423.604L274.602 354.355L343.886 368.814L274.686 354.355C274.686 352.102 276.01 350.015 277.673 349.652ZM192.395 439.507L274.518 423.604L344.272 438.161L262.065 454.064C260.382 454.401 259.035 456.504 259.035 458.776L189.365 444.219C189.365 441.948 190.712 439.844 192.395 439.507ZM189.281 513.469L258.938 527.829L259.035 458.776L189.365 444.219L189.281 513.469Z" fill="url(#paint1_linear)"/>
<g opacity="0.52" filter="url(#filter7_f)">
<ellipse cx="438.41" cy="257.664" rx="40.5" ry="5" fill="#8392CD"/>
</g>
<path d="M440.184 168.75L482.136 160.566L476.536 183.825L458.446 187.357L458.36 258.339L440.098 261.957V226.036C440.184 176.245 440.184 169.181 440.184 168.75Z" fill="white"/>
<path d="M440.184 168.749L417.959 164.184L459.911 156L482.136 160.652L440.184 168.749Z" fill="#EEEBFF"/>
<path fill-rule="evenodd" clip-rule="evenodd" d="M440.098 226.035V261.956L417.873 257.305V221.383V221.383L440.098 226.034M417.873 221.383C417.959 171.592 417.959 164.528 417.959 164.184L440.184 168.835C440.184 169.18 440.184 176.244 440.098 226.034" fill="url(#paint2_linear)"/>
<g filter="url(#filter8_d)">
<rect x="90" y="18" width="122.317" height="123" rx="3" fill="#FFCA39"/>
</g>
<rect opacity="0.5" x="168" y="123" width="30.793" height="4.27681" fill="white"/>
<path d="M117.258 38.4877L110.441 31.666L103.667 38.4877L105.505 40.3268L109.18 36.5417V46.6993H111.745V36.5417L115.399 40.3268L117.258 38.4877Z" fill="white"/>
<path d="M137.87 79.7328C143.164 79.7328 147.073 75.8737 147.073 70.6292C147.073 65.3352 143.164 61.4761 137.87 61.4761C132.626 61.4761 128.717 65.3352 128.717 70.6292C128.717 75.8737 132.626 79.7328 137.87 79.7328ZM137.623 97H143.659L164.39 62.0203H158.354L137.623 97ZM137.87 74.4388C135.644 74.4388 134.011 72.8556 134.011 70.6292C134.011 68.4027 135.644 66.8195 137.87 66.8195C140.097 66.8195 141.73 68.4027 141.73 70.6292C141.73 72.8556 140.097 74.4388 137.87 74.4388ZM164.142 97.5442C169.436 97.5442 173.345 93.6851 173.345 88.3911C173.345 83.1467 169.436 79.2875 164.142 79.2875C158.898 79.2875 154.989 83.1467 154.989 88.3911C154.989 93.6851 158.898 97.5442 164.142 97.5442ZM164.142 92.2008C161.916 92.2008 160.283 90.6176 160.283 88.3911C160.283 86.1647 161.916 84.5815 164.142 84.5815C166.369 84.5815 168.001 86.1647 168.001 88.3911C168.001 90.6176 166.369 92.2008 164.142 92.2008Z" fill="#FFFEFE"/>
<defs>
<filter id="filter0_d" x="530.334" y="20.7755" width="110.417" height="110.426" filterUnits="userSpaceOnUse" color-interpolation-filters="sRGB">
<feFlood flood-opacity="0" result="BackgroundImageFix"/>
<feColorMatrix in="SourceAlpha" type="matrix" values="0 0 0 0 0 0 0 0 0 0 0 0 0 0 0 0 0 0 127 0"/>
<feOffset dy="31.7772"/>
<feGaussianBlur stdDeviation="23.8329"/>
<feColorMatrix type="matrix" values="0 0 0 0 0.956863 0 0 0 0 0.478431 0 0 0 0 0.384314 0 0 0 0.3 0"/>
<feBlend mode="normal" in2="BackgroundImageFix" result="effect1_dropShadow"/>
<feBlend mode="normal" in="SourceGraphic" in2="effect1_dropShadow" result="shape"/>
</filter>
<filter id="filter1_d" x="0.334217" y="538.111" width="110.417" height="110.426" filterUnits="userSpaceOnUse" color-interpolation-filters="sRGB">
<feFlood flood-opacity="0" result="BackgroundImageFix"/>
<feColorMatrix in="SourceAlpha" type="matrix" values="0 0 0 0 0 0 0 0 0 0 0 0 0 0 0 0 0 0 127 0"/>
<feOffset dy="31.7772"/>
<feGaussianBlur stdDeviation="23.8329"/>
<feColorMatrix type="matrix" values="0 0 0 0 0.956863 0 0 0 0 0.478431 0 0 0 0 0.384314 0 0 0 0.3 0"/>
<feBlend mode="normal" in2="BackgroundImageFix" result="effect1_dropShadow"/>
<feBlend mode="normal" in="SourceGraphic" in2="effect1_dropShadow" result="shape"/>
</filter>
<filter id="filter2_d" x="637.334" y="355.775" width="110.417" height="110.426" filterUnits="userSpaceOnUse" color-interpolation-filters="sRGB">
<feFlood flood-opacity="0" result="BackgroundImageFix"/>
<feColorMatrix in="SourceAlpha" type="matrix" values="0 0 0 0 0 0 0 0 0 0 0 0 0 0 0 0 0 0 127 0"/>
<feOffset dy="31.7772"/>
<feGaussianBlur stdDeviation="23.8329"/>
<feColorMatrix type="matrix" values="0 0 0 0 0.956863 0 0 0 0 0.478431 0 0 0 0 0.384314 0 0 0 0.3 0"/>
<feBlend mode="normal" in2="BackgroundImageFix" result="effect1_dropShadow"/>
<feBlend mode="normal" in="SourceGraphic" in2="effect1_dropShadow" result="shape"/>
</filter>
<filter id="filter3_d" x="7.84224" y="16.3643" width="667.96" height="668.316" filterUnits="userSpaceOnUse" color-interpolation-filters="sRGB">
<feFlood flood-opacity="0" result="BackgroundImageFix"/>
<feColorMatrix in="SourceAlpha" type="matrix" values="0 0 0 0 0 0 0 0 0 0 0 0 0 0 0 0 0 0 127 0"/>
<feOffset dy="25.522"/>
<feGaussianBlur stdDeviation="20.0789"/>
<feColorMatrix type="matrix" values="0 0 0 0 0.580392 0 0 0 0 0.129412 0 0 0 0 0.933333 0 0 0 0.3 0"/>
<feBlend mode="normal" in2="BackgroundImageFix" result="effect1_dropShadow"/>
<feBlend mode="normal" in="SourceGraphic" in2="effect1_dropShadow" result="shape"/>
</filter>
<filter id="filter4_f" x="408.72" y="239.419" width="103.727" height="45.6448" filterUnits="userSpaceOnUse" color-interpolation-filters="sRGB">
<feFlood flood-opacity="0" result="BackgroundImageFix"/>
<feBlend mode="normal" in="SourceGraphic" in2="BackgroundImageFix" result="shape"/>
<feGaussianBlur stdDeviation="8.1174" result="effect1_foregroundBlur"/>
</filter>
<filter id="filter5_f" x="181.549" y="422.768" width="501.839" height="174.068" filterUnits="userSpaceOnUse" color-interpolation-filters="sRGB">
<feFlood flood-opacity="0" result="BackgroundImageFix"/>
<feBlend mode="normal" in="SourceGraphic" in2="BackgroundImageFix" result="shape"/>
<feGaussianBlur stdDeviation="25.0681" result="effect1_foregroundBlur"/>
</filter>
<filter id="filter6_f" x="151.742" y="438.996" width="389.892" height="114.211" filterUnits="userSpaceOnUse" color-interpolation-filters="sRGB">
<feFlood flood-opacity="0" result="BackgroundImageFix"/>
<feBlend mode="normal" in="SourceGraphic" in2="BackgroundImageFix" result="shape"/>
<feGaussianBlur stdDeviation="9.58388" result="effect1_foregroundBlur"/>
</filter>
<filter id="filter7_f" x="383.975" y="238.729" width="108.87" height="37.87" filterUnits="userSpaceOnUse" color-interpolation-filters="sRGB">
<feFlood flood-opacity="0" result="BackgroundImageFix"/>
<feBlend mode="normal" in="SourceGraphic" in2="BackgroundImageFix" result="shape"/>
<feGaussianBlur stdDeviation="6.96751" result="effect1_foregroundBlur"/>
</filter>
<filter id="filter8_d" x="64.3392" y="0.892772" width="173.638" height="174.322" filterUnits="userSpaceOnUse" color-interpolation-filters="sRGB">
<feFlood flood-opacity="0" result="BackgroundImageFix"/>
<feColorMatrix in="SourceAlpha" type="matrix" values="0 0 0 0 0 0 0 0 0 0 0 0 0 0 0 0 0 0 127 0"/>
<feOffset dy="8.55361"/>
<feGaussianBlur stdDeviation="12.8304"/>
<feColorMatrix type="matrix" values="0 0 0 0 0.0627451 0 0 0 0 0.0705882 0 0 0 0 0.223529 0 0 0 0.3 0"/>
<feBlend mode="normal" in2="BackgroundImageFix" result="effect1_dropShadow"/>
<feBlend mode="normal" in="SourceGraphic" in2="effect1_dropShadow" result="shape"/>
</filter>
<linearGradient id="paint0_linear" x1="513.037" y1="266.862" x2="256.975" y2="534.697" gradientUnits="userSpaceOnUse">
<stop stop-color="white"/>
<stop offset="1" stop-color="#8392CD"/>
</linearGradient>
<linearGradient id="paint1_linear" x1="278.069" y1="531.753" x2="335.661" y2="221.852" gradientUnits="userSpaceOnUse">
<stop stop-color="#8594CE"/>
<stop offset="0.116847" stop-color="#BAC3E4"/>
<stop offset="0.183401" stop-color="#D3D9EE"/>
<stop offset="0.224264" stop-color="#E4E8F5"/>
<stop offset="0.264939" stop-color="#C0C8E6"/>
<stop offset="0.332271" stop-color="#8593CE"/>
<stop offset="0.464534" stop-color="#C0C8E6"/>
<stop offset="0.504958" stop-color="#CFD5EC"/>
<stop offset="0.555929" stop-color="#E5E9F5"/>
<stop offset="0.601086" stop-color="#C0C7E6"/>
<stop offset="0.665694" stop-color="#8A97D0"/>
<stop offset="0.846149" stop-color="#D0D5EC"/>
<stop offset="0.894157" stop-color="#E2E6F4"/>
<stop offset="1" stop-color="#EBECF6"/>
</linearGradient>
<linearGradient id="paint2_linear" x1="429.029" y1="164.184" x2="429.029" y2="261.956" gradientUnits="userSpaceOnUse">
<stop stop-color="#D5D4EB"/>
<stop offset="1" stop-color="#C0BFE1"/>
</linearGradient>
<clipPath id="clip0">
<rect x="165.613" y="116" width="330.357" height="402.5" fill="white"/>
</clipPath>
</defs>
</svg>
